<?xml version="1.0" encoding="UTF-8"?>
<svg width="184px" height="224px" viewBox="0 0 184 224" version="1.1" xmlns="http://www.w3.org/2000/svg" xmlns:xlink="http://www.w3.org/1999/xlink">
    <title>Budai44mm</title>
    <g id="Budai44mm" stroke="none" stroke-width="1" fill="none" fill-rule="evenodd">
        <g id="Budai" transform="translate(-53.000000, 23.000000)">
            <path d="M197.91872,146.407949 C197.91872,146.407949 241.807977,166.166202 251.882331,173.392846 C261.956685,180.61949 311.122905,283.058127 288.338196,292.962167 C265.553487,302.866207 246.851769,290.597023 246.851769,290.597023 C246.851769,290.597023 244.164503,366.852984 243.420337,377.084225 L65.9483216,380.97409 C65.9483216,380.97409 51.7777473,349.953167 44.4038891,301.730141 C44.4038891,301.730141 14.6703231,308.573114 3.33419442,279.930622 C-8.00193431,251.28647 20.0597387,193.091306 29.9720298,181.586143 C54.5592744,153.04829 95.3494934,139.368988 95.3494934,139.368988 L197.91872,146.407949 Z" id="Fill-179" fill="#FDDE99"></path>
            <path d="M197.91872,146.407949 C197.91872,146.407949 241.807977,166.166202 251.882331,173.392846 C261.956685,180.61949 311.122905,283.058127 288.338196,292.962167 C265.553487,302.866207 246.851769,290.597023 246.851769,290.597023 C246.851769,290.597023 244.164503,366.852984 243.420337,377.084225 L65.9483216,380.97409 C65.9483216,380.97409 51.7777473,349.953167 44.4038891,301.730141 C44.4038891,301.730141 14.6703231,308.573114 3.33419442,279.930622 C-8.00193431,251.28647 20.0597387,193.091306 29.9720298,181.586143 C54.5592744,153.04829 95.3494934,139.368988 95.3494934,139.368988 L197.91872,146.407949 Z" id="Stroke-181" stroke="#8A8B8A" stroke-width="4" stroke-linecap="round" stroke-linejoin="round"></path>
            <path d="M110.451267,149.533958 C110.451267,149.533958 97.4845883,178.580052 95.7068584,213.431046 C93.0725108,265.100472 104.813797,329.527392 136.981612,330.967406 C181.805211,332.975453 199.317917,268.012057 198.578712,215.74138 C198.080948,180.573151 184.165044,151.360965 184.165044,151.360965 L110.451267,149.533958 Z" id="Fill-183" fill="#F7D9BA"></path>
            <path d="M110.451267,149.533958 C110.451267,149.533958 97.4845883,178.580052 95.7068584,213.431046 C93.0725108,265.100472 104.813797,329.527392 136.981612,330.967406 C181.805211,332.975453 199.317917,268.012057 198.578712,215.74138 C198.080948,180.573151 184.165044,151.360965 184.165044,151.360965 L110.451267,149.533958 Z" id="Stroke-185" stroke="#8A8B8A" stroke-width="4" stroke-linecap="round" stroke-linejoin="round"></path>
            <path d="M94.5036247,51.9925316 C93.7826105,35.1608119 101.655887,0.303174236 147.670151,0.303174236 C197.044738,0.303174236 202.344854,35.7969427 202.344854,45.1761336 C202.344854,54.5553245 199.037449,69.9852313 214.07291,98.4649528 C228.886775,126.522802 212.220764,155.328063 148.315095,155.328063 C84.4094263,155.328063 73.8009266,118.819475 83.2931773,99.3336117 C92.7854281,79.8477487 95.0890353,65.6718333 94.5036247,51.9925316" id="Fill-187" fill="#F7D9BA"></path>
            <path d="M94.5036247,51.9925316 C93.7826105,35.1608119 101.655887,0.303174236 147.670151,0.303174236 C197.044738,0.303174236 202.344854,35.7969427 202.344854,45.1761336 C202.344854,54.5553245 199.037449,69.9852313 214.07291,98.4649528 C228.886775,126.522802 212.220764,155.328063 148.315095,155.328063 C84.4094263,155.328063 73.8009266,118.819475 83.2931773,99.3336117 C92.7854281,79.8477487 95.0890353,65.6718333 94.5036247,51.9925316 Z" id="Stroke-189" stroke="#8A8B8A" stroke-width="4" stroke-linecap="round" stroke-linejoin="round"></path>
            <path d="M154.858795,53.5855159 C154.858795,53.5855159 172.088718,53.168626 180.355575,58.2310971" id="Stroke-191" stroke="#8A8B8A" stroke-width="4" stroke-linecap="round" stroke-linejoin="round"></path>
            <path d="M157.63503,76.5594679 C157.63503,76.5594679 164.024935,71.827519 169.209292,71.9089039 C174.393648,71.9902888 182.976363,76.6906802 184.165375,78.0160909" id="Stroke-193" stroke="#8A8B8A" stroke-width="3" stroke-linecap="round" stroke-linejoin="round"></path>
            <path d="M136.450774,52.334182 C136.450774,52.334182 119.22085,51.9172921 110.953993,56.9797632" id="Stroke-195" stroke="#8A8B8A" stroke-width="4" stroke-linecap="round" stroke-linejoin="round"></path>
            <path d="M136.982108,75.308134 C136.982108,75.308134 130.592203,70.5761852 125.407846,70.65757 C120.22349,70.7389549 111.640775,75.4393463 110.451764,76.764757" id="Stroke-197" stroke="#8A8B8A" stroke-width="3" stroke-linecap="round" stroke-linejoin="round"></path>
            <path d="M133.294352,94.2294517 C133.294352,94.2294517 133.436571,100.431311 143.58038,100.607368 C153.722536,100.785086 156.259315,97.0646348 156.512331,94.2294517" id="Stroke-199" stroke="#8A8B8A" stroke-width="3" stroke-linecap="round" stroke-linejoin="round"></path>
            <path d="M122.064226,114.825471 C122.064226,114.825471 120.728035,123.350951 143.218385,123.688117 C165.708735,124.026944 169.67762,120.241717 170.239879,114.825471" id="Stroke-201" stroke="#8A8B8A" stroke-width="3" stroke-linecap="round" stroke-linejoin="round"></path>
            <path d="M113.927184,115.653437 C113.927184,115.653437 124.572065,116.131781 126.000864,109.589434" id="Stroke-203" stroke="#8A8B8A" stroke-width="3" stroke-linecap="round" stroke-linejoin="round"></path>
            <path d="M166.853428,108.587403 C166.853428,108.587403 172.305684,119.081069 179.22312,118.210749" id="Stroke-205" stroke="#8A8B8A" stroke-width="3" stroke-linecap="round" stroke-linejoin="round"></path>
        </g>
    </g>
</svg>