<?xml version="1.0" encoding="UTF-8"?>
<svg width="2048px" height="1393px" viewBox="0 0 2048 1393" version="1.1" xmlns="http://www.w3.org/2000/svg" xmlns:xlink="http://www.w3.org/1999/xlink">
    <title>Treasureboat2</title>
    <defs>
        <polygon id="path-1" points="0 1393 2047.47559 1393 2047.47559 0.181983373 0 0.181983373"></polygon>
        <polygon id="path-3" points="0 1393 2047.47559 1393 2047.47559 0.181983373 0 0.181983373"></polygon>
        <polygon id="path-5" points="0 1393 2047.47559 1393 2047.47559 0.181983373 0 0.181983373"></polygon>
    </defs>
    <g id="Page-1" stroke="none" stroke-width="1" fill="none" fill-rule="evenodd">
        <g id="Logo-Big" transform="translate(0.000000, -356.000000)">
            <g id="Treasureboat2" transform="translate(0.000000, 356.000000)">
                <g id="Ebisu" transform="translate(33.000000, 199.000000)">
                    <path d="M22.0144485,359.455311 C22.0144485,359.455311 6.07367221,389.803657 11.1516209,409.59318 L28.839809,390.410657 L45.4559857,399.700899 C45.4559857,399.700899 52.4821409,376.643169 40.6634641,359.916763 L22.0144485,359.455311 Z" id="Fill-1" fill="#E88478"></path>
                    <path d="M22.0144485,359.455311 C22.0144485,359.455311 6.07367221,389.803657 11.1516209,409.59318 L28.839809,390.410657 L45.4559857,399.700899 C45.4559857,399.700899 52.4821409,376.643169 40.6634641,359.916763 L22.0144485,359.455311 Z" id="Stroke-3" stroke="#8A8B8A" stroke-width="4" stroke-linecap="round" stroke-linejoin="round"></path>
                    <path d="M288.341077,478.618011 L251.041387,452.991695 L261.325062,401.621633 L304.734886,411.790123 L314.93393,414.778813 L338.294153,408.584766 C338.294153,408.584766 403.389805,412.071295 409.385436,404.478006 C415.379406,396.884717 409.385436,404.478006 409.385436,404.478006 C409.385436,404.478006 447.015359,401.76718 441.962302,496.275592 C436.910905,590.785657 430.369312,603.430112 430.369312,603.430112 L288.341077,606.828981 L288.341077,478.618011 Z" id="Fill-5" fill="#475B8C"></path>
                    <path d="M288.341077,478.618011 L251.041387,452.991695 L261.325062,401.621633 L304.734886,411.790123 L314.93393,414.778813 L338.294153,408.584766 C338.294153,408.584766 403.389805,412.071295 409.385436,404.478006 C415.379406,396.884717 409.385436,404.478006 409.385436,404.478006 C409.385436,404.478006 447.015359,401.76718 441.962302,496.275592 C436.910905,590.785657 430.369312,603.430112 430.369312,603.430112 L288.341077,606.828981 L288.341077,478.618011 Z" id="Stroke-7" stroke="#8A8B8A" stroke-width="4" stroke-linecap="round" stroke-linejoin="round"></path>
                    <path d="M279.155964,395.057432 L253.485772,388.133993 C248.026147,386.660323 235.542027,399.619029 233.01135,422.562637 C230.417613,446.090089 245.488832,456.918506 248.623553,458.71635 C259.166104,464.758233 293.002501,481.213391 294.320113,442.094143 C295.262686,414.132449 291.99355,404.96129 291.99355,404.96129 C292.232512,400.570051 283.415799,396.206928 279.155964,395.057432" id="Fill-9" fill="#475B8C"></path>
                    <path d="M279.155964,395.057432 L253.485772,388.133993 C248.026147,386.660323 235.542027,399.619029 233.01135,422.562637 C230.417613,446.090089 245.488832,456.918506 248.623553,458.71635 C259.166104,464.758233 293.002501,481.213391 294.320113,442.094143 C295.262686,414.132449 291.99355,404.96129 291.99355,404.96129 C292.232512,400.570051 283.415799,396.206928 279.155964,395.057432 Z" id="Stroke-11" stroke="#8A8B8A" stroke-width="4" stroke-linecap="round" stroke-linejoin="round"></path>
                    <path d="M203.218892,81.9891605 C203.218892,81.9891605 156.999601,5.76517684 130.09477,1.20854196 C65.1866376,-9.78361608 -14.9121955,68.8468662 26.5178921,118.387659 C67.9479796,167.928452 114.902411,127.148637 59.662294,232.877452" id="Stroke-13" stroke="#8A8B8A" stroke-width="2" stroke-linecap="round" stroke-linejoin="round"></path>
                    <path d="M319.912145,555.364809 C319.912145,555.364809 264.725131,293.460022 203.218892,81.9891605" id="Stroke-15" stroke="#8A8B8A" stroke-width="4" stroke-linecap="round" stroke-linejoin="round"></path>
                    <path d="M302.25001,419.343386 C302.25001,430.185035 296.022056,438.975784 288.340413,438.975784 C280.658771,438.975784 274.432476,430.185035 274.432476,419.343386 C274.432476,408.501738 280.658771,399.710989 288.340413,399.710989 C296.022056,399.710989 302.25001,408.501738 302.25001,419.343386" id="Fill-17" fill="#F7D9BA"></path>
                    <path d="M302.25001,419.343386 C302.25001,430.185035 296.022056,438.975784 288.340413,438.975784 C280.658771,438.975784 274.432476,430.185035 274.432476,419.343386 C274.432476,408.501738 280.658771,399.710989 288.340413,399.710989 C296.022056,399.710989 302.25001,408.501738 302.25001,419.343386 Z" id="Stroke-19" stroke="#8A8B8A" stroke-width="3" stroke-linecap="round" stroke-linejoin="round"></path>
                    <path d="M326.894158,510.112049 C326.894158,519.518068 320.666204,527.144436 312.984562,527.144436 C305.30292,527.144436 299.076624,519.518068 299.076624,510.112049 C299.076624,500.70603 305.30292,493.079662 312.984562,493.079662 C320.666204,493.079662 326.894158,500.70603 326.894158,510.112049" id="Fill-21" fill="#F7D9BA"></path>
                    <path d="M326.894158,510.112049 C326.894158,519.518068 320.666204,527.144436 312.984562,527.144436 C305.30292,527.144436 299.076624,519.518068 299.076624,510.112049 C299.076624,500.70603 305.30292,493.079662 312.984562,493.079662 C320.666204,493.079662 326.894158,500.70603 326.894158,510.112049 Z" id="Stroke-23" stroke="#8A8B8A" stroke-width="3" stroke-linecap="round" stroke-linejoin="round"></path>
                    <path d="M57.1166818,236.364973 C57.1166818,236.364973 -0.00194409629,241.227589 0.631969765,280.543657 C1.26588363,319.861379 28.8411366,370.541744 28.8411366,370.541744 C28.8411366,370.541744 56.9689898,346.734774 67.9064931,315.976248 C78.694645,285.632864 85.0420809,268.625286 57.1166818,236.364973" id="Fill-25" fill="#E88478"></path>
                    <path d="M57.1166818,236.364973 C57.1166818,236.364973 -0.00194409629,241.227589 0.631969765,280.543657 C1.26588363,319.861379 28.8411366,370.541744 28.8411366,370.541744 C28.8411366,370.541744 56.9689898,346.734774 67.9064931,315.976248 C78.694645,285.632864 85.0420809,268.625286 57.1166818,236.364973 Z" id="Stroke-27" stroke="#8A8B8A" stroke-width="4" stroke-linecap="round" stroke-linejoin="round"></path>
                    <path d="M37.8287739,269.847225 C37.8287739,274.936432 33.7315663,279.061386 28.6785095,279.061386 C23.6254526,279.061386 19.5299045,274.936432 19.5299045,269.847225 C19.5299045,264.758018 23.6254526,260.633065 28.6785095,260.633065 C33.7315663,260.633065 37.8287739,264.758018 37.8287739,269.847225" id="Fill-29" fill="#8A8B8A"></path>
                    <path d="M58.7761422,234.711022 C58.7761422,234.711022 52.7655767,246.713744 51.9574195,257.846488" id="Stroke-31" stroke="#8A8B8A" stroke-width="4" stroke-linecap="round" stroke-linejoin="round"></path>
                    <path d="M331.253727,410.451581 L328.35299,436.651818 C328.35299,436.651818 387.663763,413.418769 432.577058,422.943872 C432.577058,422.943872 416.317665,394.034463 393.075263,390.660404 C376.995092,388.326679 331.253727,410.451581 331.253727,410.451581" id="Fill-33" fill="#F7D9BA"></path>
                    <path d="M331.253727,410.451581 L328.35299,436.651818 C328.35299,436.651818 387.663763,413.418769 432.577058,422.943872 C432.577058,422.943872 416.317665,394.034463 393.075263,390.660404 C376.995092,388.326679 331.253727,410.451581 331.253727,410.451581 Z" id="Stroke-35" stroke="#8A8B8A" stroke-width="4" stroke-linecap="round" stroke-linejoin="round"></path>
                    <path d="M343.272203,300.278931 C343.272203,300.278931 341.400331,314.506217 342.532083,318.877609 C342.532083,318.877609 336.302469,326.925734 329.53519,329.10068 C323.010191,331.199544 316.093561,340.360778 322.396191,343.496669 C330.449552,347.502538 329.263038,346.926963 329.263038,346.926963 L328.507984,353.850402 C328.507984,353.850402 320.559168,356.203974 324.395841,360.479437 C328.232513,364.754901 335.593879,365.310628 335.593879,365.310628 C335.593879,365.310628 351.791872,360.606792 350.185514,365.310628 C348.577497,370.014465 335.713361,379.792623 328.391821,379.26005 C321.071942,378.727478 321.914948,388.267467 325.210636,393.098658 C328.507984,397.931503 338.783362,407.208514 373.38643,408.442361 C407.987838,409.676208 423.362738,402.670072 427.75533,396.246127 C432.147922,389.822181 451.093981,352.140217 454.07769,338.999576 C457,326.123568 408.615114,288.795549 408.615114,288.795549 L343.272203,300.278931 Z" id="Fill-37" fill="#F7D9BA"></path>
                    <path d="M343.272203,300.278931 C343.272203,300.278931 341.400331,314.506217 342.532083,318.877609 C342.532083,318.877609 336.302469,326.925734 329.53519,329.10068 C323.010191,331.199544 316.093561,340.360778 322.396191,343.496669 C330.449552,347.502538 329.263038,346.926963 329.263038,346.926963 L328.507984,353.850402 C328.507984,353.850402 320.559168,356.203974 324.395841,360.479437 C328.232513,364.754901 335.593879,365.310628 335.593879,365.310628 C335.593879,365.310628 351.791872,360.606792 350.185514,365.310628 C348.577497,370.014465 335.713361,379.792623 328.391821,379.26005 C321.071942,378.727478 321.914948,388.267467 325.210636,393.098658 C328.507984,397.931503 338.783362,407.208514 373.38643,408.442361 C407.987838,409.676208 423.362738,402.670072 427.75533,396.246127 C432.147922,389.822181 451.093981,352.140217 454.07769,338.999576 C457,326.123568 408.615114,288.795549 408.615114,288.795549 L343.272203,300.278931 Z" id="Stroke-39" stroke="#8A8B8A" stroke-width="4" stroke-linecap="round" stroke-linejoin="round"></path>
                    <g id="Group-44" transform="translate(335.859393, 353.945504)">
                        <polyline id="Fill-41" fill="#F7D9BA" points="0.372714799 0.0914634877 17.2709997 0.0914634877 24.2241387 6.02418556"></polyline>
                        <polyline id="Stroke-43" stroke="#8A8B8A" stroke-width="4" stroke-linecap="round" stroke-linejoin="round" points="0.372714799 0.0914634877 17.2709997 0.0914634877 24.2241387 6.02418556"></polyline>
                    </g>
                    <path d="M352.711545,313.678249 C352.711545,313.678249 371.282566,311.079892 374.364184,314.622655 C377.447461,318.167072 382.744459,327.81126 382.744459,327.81126" id="Stroke-45" stroke="#8A8B8A" stroke-width="4" stroke-linecap="round" stroke-linejoin="round"></path>
                    <path d="M426.706717,264.599901 C403.920667,257.517683 419.584313,256.39465 432.66252,244.195108 C444.721819,232.948241 395.91377,231.396835 382.744293,243.679075 C373.969066,251.862824 372.349433,272.457822 372.349433,272.457822 C372.349433,272.457822 344.243153,286.751266 343.272368,301.094328 C343.272368,301.094328 437.144723,338.999576 454.076197,338.999576 C454.076197,338.999576 468.880243,277.709116 426.706717,264.599901" id="Fill-47" fill="#475B8C"></path>
                    <path d="M426.706717,264.599901 C403.920667,257.517683 419.584313,256.39465 432.66252,244.195108 C444.721819,232.948241 395.91377,231.396835 382.744293,243.679075 C373.969066,251.862824 372.349433,272.457822 372.349433,272.457822 C372.349433,272.457822 344.243153,286.751266 343.272368,301.094328 C343.272368,301.094328 437.144723,338.999576 454.076197,338.999576 C454.076197,338.999576 468.880243,277.709116 426.706717,264.599901 Z" id="Stroke-49" stroke="#8A8B8A" stroke-width="4" stroke-linecap="round" stroke-linejoin="round"></path>
                    <path d="M348.72884,326.032105 C348.72884,326.032105 355.117763,323.865429 359.296284,325.25971 C363.476464,326.655644 369.224835,332.634677 369.850452,334.004148" id="Stroke-51" stroke="#8A8B8A" stroke-width="3" stroke-linecap="round" stroke-linejoin="round"></path>
                    <path d="M30.3074358,268.494955 C30.3074358,270.483004 28.642997,272.093952 26.5902445,272.093952 C24.5374921,272.093952 22.8730533,270.483004 22.8730533,268.494955 C22.8730533,266.506906 24.5374921,264.895958 26.5902445,264.895958 C28.642997,264.895958 30.3074358,266.506906 30.3074358,268.494955" id="Fill-53" fill="#E4E4E3"></path>
                </g>
                <g id="Daikoku">
                    <path d="M532.642616,569.323246 C532.642616,569.323246 490.044878,568.728316 468.145504,586.75625 C446.856561,604.279595 402.892386,660.472752 438.290693,686.383875 C450.029472,694.976799 470.421795,675.307705 470.421795,675.307705 C437.289853,758.371534 457.495243,793.674654 457.893924,803.443853 L652.999837,803.443853 C652.999837,803.443853 667.939163,728.690046 639.133653,680.780442 C639.133653,680.780442 654.230622,688.054813 665.018189,670.93845 C671.752768,660.256026 665.855256,609.254359 657.335708,599.908685 C646.910428,588.475166 630.01691,576.269045 606.096005,569.323246 L532.642616,569.323246 Z" id="Fill-56" fill="#CE5F52"></path>
                    <path d="M532.642616,569.323246 C532.642616,569.323246 490.044878,568.728316 468.145504,586.75625 C446.856561,604.279595 402.892386,660.472752 438.290693,686.383875 C450.029472,694.976799 470.421795,675.307705 470.421795,675.307705 C437.289853,758.371534 457.495243,793.674654 457.893924,803.443853 L652.999837,803.443853 C652.999837,803.443853 667.939163,728.690046 639.133653,680.780442 C639.133653,680.780442 654.230622,688.054813 665.018189,670.93845 C671.752768,660.256026 665.855256,609.254359 657.335708,599.908685 C646.910428,588.475166 630.01691,576.269045 606.096005,569.323246 L532.642616,569.323246 Z" id="Stroke-58" stroke="#8A8B8A" stroke-width="4" stroke-linecap="round" stroke-linejoin="round"></path>
                    <path d="M626.871791,627.197754 C626.871791,627.197754 616.755862,650.489971 616.441548,655.980906 C616.441548,655.980906 634.392153,667.733723 643.593264,665.159485 L643.156534,632.32803 L626.871791,627.197754 Z" id="Fill-60" fill="#FFFFFE"></path>
                    <path d="M626.871791,627.197754 C626.871791,627.197754 616.755862,650.489971 616.441548,655.980906 C616.441548,655.980906 634.392153,667.733723 643.593264,665.159485 L643.156534,632.32803 L626.871791,627.197754 Z" id="Stroke-62" stroke="#8A8B8A" stroke-width="4" stroke-linecap="round" stroke-linejoin="round"></path>
                    <mask id="mask-2" fill="white">
                        <use xlink:href="#path-1"></use>
                    </mask>
                    <g id="Clip-65"></g>
                    <polygon id="Fill-64" fill="#C7AE99" mask="url(#mask-2)" points="444.144698 665.849037 457.895082 665.849037 457.895082 621.635349 444.144698 621.635349"></polygon>
                    <polygon id="Stroke-66" stroke="#8A8B8A" stroke-width="3" stroke-linecap="round" stroke-linejoin="round" mask="url(#mask-2)" points="444.144698 665.849037 457.895082 665.849037 457.895082 621.635349 444.144698 621.635349"></polygon>
                    <path d="M505.80968,484.942178 C505.80968,484.942178 473.104543,471.053538 484.237855,448.737413 C495.369512,426.421289 514.54263,427.63396 521.525351,428.904535 C521.525351,428.904535 534.94157,407.854021 560.333131,407.63895 C585.373984,407.425533 597.253376,420.275214 600.464336,427.183964 C600.464336,427.183964 618.360349,422.956987 629.442378,430.960947 C640.522753,438.966561 648.311108,474.276298 618.60022,477.912657 C618.60022,477.912657 594.993628,475.59485 559.56389,475.59485 C524.135806,475.59485 505.80968,484.942178 505.80968,484.942178" id="Fill-67" fill="#CE5F52" mask="url(#mask-2)"></path>
                    <path d="M505.80968,484.942178 C505.80968,484.942178 473.104543,471.053538 484.237855,448.737413 C495.369512,426.421289 514.54263,427.63396 521.525351,428.904535 C521.525351,428.904535 534.94157,407.854021 560.333131,407.63895 C585.373984,407.425533 597.253376,420.275214 600.464336,427.183964 C600.464336,427.183964 618.360349,422.956987 629.442378,430.960947 C640.522753,438.966561 648.311108,474.276298 618.60022,477.912657 C618.60022,477.912657 594.993628,475.59485 559.56389,475.59485 C524.135806,475.59485 505.80968,484.942178 505.80968,484.942178 Z" id="Stroke-68" stroke="#8A8B8A" stroke-width="4" stroke-linecap="round" stroke-linejoin="round" mask="url(#mask-2)"></path>
                    <path d="M465.021891,656.36092 C465.021891,665.76946 458.813374,673.397873 451.155707,673.397873 C443.498039,673.397873 437.291177,665.76946 437.291177,656.36092 C437.291177,646.95238 443.498039,639.323968 451.155707,639.323968 C458.813374,639.323968 465.021891,646.95238 465.021891,656.36092" id="Fill-69" fill="#F7D9BA" mask="url(#mask-2)"></path>
                    <path d="M465.021891,656.36092 C465.021891,665.76946 458.813374,673.397873 451.155707,673.397873 C443.498039,673.397873 437.291177,665.76946 437.291177,656.36092 C437.291177,646.95238 443.498039,639.323968 451.155707,639.323968 C458.813374,639.323968 465.021891,646.95238 465.021891,656.36092 Z" id="Stroke-70" stroke="#8A8B8A" stroke-width="3" stroke-linecap="round" stroke-linejoin="round" mask="url(#mask-2)"></path>
                    <polygon id="Fill-71" fill="#C7AE99" mask="url(#mask-2)" points="425.019554 623.238457 474.783638 623.238457 474.783638 579.02477 425.019554 579.02477"></polygon>
                    <polygon id="Stroke-72" stroke="#8A8B8A" stroke-width="3" stroke-linecap="round" stroke-linejoin="round" mask="url(#mask-2)" points="425.019554 623.238457 474.783638 623.238457 474.783638 579.02477 425.019554 579.02477"></polygon>
                    <path d="M497.962598,573.371704 C497.962598,573.371704 552.41326,606.663081 560.492769,623.238457 C560.492769,623.238457 587.838036,591.275559 621.73591,580.713906 L563.801331,559.625342 L497.962598,573.371704 Z" id="Fill-73" fill="#633E3E" mask="url(#mask-2)"></path>
                    <path d="M497.962598,573.371704 C497.962598,573.371704 552.41326,606.663081 560.492769,623.238457 C560.492769,623.238457 587.838036,591.275559 621.73591,580.713906 L563.801331,559.625342 L497.962598,573.371704 Z" id="Stroke-74" stroke="#8A8B8A" stroke-width="4" stroke-linecap="round" stroke-linejoin="round" mask="url(#mask-2)"></path>
                    <path d="M438.291521,601.13211 C438.291521,613.34154 432.349343,623.238126 425.020878,623.238126 C417.690758,623.238126 411.74858,613.34154 411.74858,601.13211 C411.74858,588.92268 417.690758,579.026093 425.020878,579.026093 C432.349343,579.026093 438.291521,588.92268 438.291521,601.13211" id="Fill-75" fill="#C7AE99" mask="url(#mask-2)"></path>
                    <path d="M438.291521,601.13211 C438.291521,613.34154 432.349343,623.238126 425.020878,623.238126 C417.690758,623.238126 411.74858,613.34154 411.74858,601.13211 C411.74858,588.92268 417.690758,579.026093 425.020878,579.026093 C432.349343,579.026093 438.291521,588.92268 438.291521,601.13211 Z" id="Stroke-76" stroke="#8A8B8A" stroke-width="3" stroke-linecap="round" stroke-linejoin="round" mask="url(#mask-2)"></path>
                    <g id="Group-79" mask="url(#mask-2)">
                        <g transform="translate(463.198708, 578.393763)">
                            <path d="M0.586938934,44.8450254 L11.5845997,44.8450254 C18.9147192,44.8450254 24.8568969,34.9467843 24.8568969,22.7390088 C24.8568969,10.5295788 18.9147192,0.631337739 11.5845997,0.631337739 L0.586938934,0.631337739" id="Fill-77" stroke="none" fill="#C7AE99" fill-rule="evenodd"></path>
                            <path d="M0.586938934,44.8450254 L11.5845997,44.8450254 C18.9147192,44.8450254 24.8568969,34.9467843 24.8568969,22.7390088 C24.8568969,10.5295788 18.9147192,0.631337739 11.5845997,0.631337739 L0.586938934,0.631337739" id="Stroke-78" stroke="#8A8B8A" stroke-width="3" fill="none" stroke-linecap="round" stroke-linejoin="round"></path>
                        </g>
                    </g>
                    <path d="M442.810355,579.025597 L435.940125,563.469327 C435.940125,563.469327 452.815447,554.821808 466.37228,563.469327 L459.922238,579.025597 L442.810355,579.025597 Z" id="Fill-80" fill="#C7AE99" mask="url(#mask-2)"></path>
                    <path d="M442.810355,579.025597 L435.940125,563.469327 C435.940125,563.469327 452.815447,554.821808 466.37228,563.469327 L459.922238,579.025597 L442.810355,579.025597 Z" id="Stroke-81" stroke="#8A8B8A" stroke-width="3" stroke-linecap="round" stroke-linejoin="round" mask="url(#mask-2)"></path>
                    <path d="M633.355745,599.90852 C633.355745,599.90852 615.044508,572.290061 632.040592,553.003133 C645.099487,538.183068 682.420068,539.260079 699.012508,547.34345 C717.858078,556.523684 729.409923,601.132771 725.356934,627.197754 C718.334511,672.364372 662.715926,674.154427 662.715926,674.154427 C668.325594,665.528415 671.592799,642.853287 660.825083,611.998833 C650.762091,583.166049 645.956405,601.562914 645.956405,601.562914 L633.355745,599.90852 Z" id="Fill-82" fill="#FFFFFE" mask="url(#mask-2)"></path>
                    <path d="M633.355745,599.90852 C633.355745,599.90852 615.044508,572.290061 632.040592,553.003133 C645.099487,538.183068 682.420068,539.260079 699.012508,547.34345 C717.858078,556.523684 729.409923,601.132771 725.356934,627.197754 C718.334511,672.364372 662.715926,674.154427 662.715926,674.154427 C668.325594,665.528415 671.592799,642.853287 660.825083,611.998833 C650.762091,583.166049 645.956405,601.562914 645.956405,601.562914 L633.355745,599.90852 Z" id="Stroke-83" stroke="#8A8B8A" stroke-width="4" stroke-linecap="round" stroke-linejoin="round" mask="url(#mask-2)"></path>
                    <path d="M505.80968,484.942178 L506.387024,512.676444 C506.387024,512.676444 492.987347,555.118276 518.145654,564.690601 C542.150927,573.822858 578.325092,575.187733 600.664504,566.718888 C622.605234,558.400594 614.957493,521.305765 614.949221,514.216685 C614.94095,507.127606 618.60022,477.912657 618.60022,477.912657 C618.60022,477.912657 548.447121,457.694304 505.80968,484.942178" id="Fill-84" fill="#F7D9BA" mask="url(#mask-2)"></path>
                    <path d="M505.80968,484.942178 L506.387024,512.676444 C506.387024,512.676444 492.987347,555.118276 518.145654,564.690601 C542.150927,573.822858 578.325092,575.187733 600.664504,566.718888 C622.605234,558.400594 614.957493,521.305765 614.949221,514.216685 C614.94095,507.127606 618.60022,477.912657 618.60022,477.912657 C618.60022,477.912657 548.447121,457.694304 505.80968,484.942178 Z" id="Stroke-85" stroke="#8A8B8A" stroke-width="4" stroke-linecap="round" stroke-linejoin="round" mask="url(#mask-2)"></path>
                    <path d="M570.2967,492.703604 C570.2967,492.703604 587.532655,487.325168 595.802406,492.367762" id="Stroke-86" stroke="#8A8B8A" stroke-width="4" stroke-linecap="round" stroke-linejoin="round" mask="url(#mask-2)"></path>
                    <path d="M569.765345,508.969774 C569.765345,508.969774 576.157488,504.256405 581.343659,504.33747 C586.52983,504.418535 595.115549,509.100471 596.304977,510.420678" id="Stroke-87" stroke="#8A8B8A" stroke-width="3" stroke-linecap="round" stroke-linejoin="round" mask="url(#mask-2)"></path>
                    <path d="M548.573839,491.457018 C548.573839,491.457018 531.337884,486.078582 523.068133,491.121176" id="Stroke-88" stroke="#8A8B8A" stroke-width="4" stroke-linecap="round" stroke-linejoin="round" mask="url(#mask-2)"></path>
                    <path d="M549.105194,507.723188 C549.105194,507.723188 542.713052,503.009818 537.526881,503.090884 C532.34071,503.171949 523.754991,507.853885 522.565563,509.174092" id="Stroke-89" stroke="#8A8B8A" stroke-width="3" stroke-linecap="round" stroke-linejoin="round" mask="url(#mask-2)"></path>
                    <path d="M549.105194,526.699421 C549.105194,526.699421 549.204451,532.87693 556.263268,533.052295 C563.322086,533.229316 565.087204,529.523472 565.262558,526.699421" id="Stroke-90" stroke="#8A8B8A" stroke-width="3" stroke-linecap="round" stroke-linejoin="round" mask="url(#mask-2)"></path>
                    <path d="M533.087783,544.577633 C533.087783,544.577633 531.751124,553.069639 554.249347,553.405481 C576.74757,553.742978 580.717844,549.972613 581.2803,544.577633" id="Stroke-91" stroke="#8A8B8A" stroke-width="3" stroke-linecap="round" stroke-linejoin="round" mask="url(#mask-2)"></path>
                    <path d="M543.620425,535.043359 C543.620425,535.043359 527.522616,532.601473 523.529181,539.26041" id="Stroke-92" stroke="#8A8B8A" stroke-width="3" stroke-linecap="round" stroke-linejoin="round" mask="url(#mask-2)"></path>
                    <path d="M575.250114,535.043359 C575.250114,535.043359 591.347924,532.601473 595.341358,539.26041" id="Stroke-93" stroke="#8A8B8A" stroke-width="3" stroke-linecap="round" stroke-linejoin="round" mask="url(#mask-2)"></path>
                    <path d="M651.345391,616.945307 C651.345391,626.353847 645.136874,633.982259 637.479206,633.982259 C629.821539,633.982259 623.614677,626.353847 623.614677,616.945307 C623.614677,607.536766 629.821539,599.908354 637.479206,599.908354 C645.136874,599.908354 651.345391,607.536766 651.345391,616.945307" id="Fill-94" fill="#F7D9BA" mask="url(#mask-2)"></path>
                    <path d="M651.345391,616.945307 C651.345391,626.353847 645.136874,633.982259 637.479206,633.982259 C629.821539,633.982259 623.614677,626.353847 623.614677,616.945307 C623.614677,607.536766 629.821539,599.908354 637.479206,599.908354 C645.136874,599.908354 651.345391,607.536766 651.345391,616.945307 Z" id="Stroke-95" stroke="#8A8B8A" stroke-width="3" stroke-linecap="round" stroke-linejoin="round" mask="url(#mask-2)"></path>
                </g>
                <g id="Group-125">
                    <path d="M643.956379,48.2896189 L1295.01856,48.2896189 C1306.69944,48.2896189 1316.16854,57.8602899 1316.16854,69.6660476 C1316.16854,81.4734597 1306.69944,91.0441308 1295.01856,91.0441308 L643.956379,91.0441308 C632.2755,91.0441308 622.806395,81.4734597 622.806395,69.6660476 C622.806395,57.8602899 632.2755,48.2896189 643.956379,48.2896189" id="Fill-97" fill="#C7AE99"></path>
                    <path d="M643.956379,48.2896189 L1295.01856,48.2896189 C1306.69944,48.2896189 1316.16854,57.8602899 1316.16854,69.6660476 C1316.16854,81.4734597 1306.69944,91.0441308 1295.01856,91.0441308 L643.956379,91.0441308 C632.2755,91.0441308 622.806395,81.4734597 622.806395,69.6660476 C622.806395,57.8602899 632.2755,48.2896189 643.956379,48.2896189 Z" id="Stroke-99" stroke="#8A8B8A" stroke-width="6.813" stroke-linecap="round" stroke-linejoin="round"></path>
                    <mask id="mask-4" fill="white">
                        <use xlink:href="#path-3"></use>
                    </mask>
                    <g id="Clip-102"></g>
                    <polygon id="Fill-101" fill="#E4E4E3" mask="url(#mask-4)" points="704.690662 451.654607 1227.51462 451.654607 1227.51462 91.0446271 704.690662 91.0446271"></polygon>
                    <polygon id="Stroke-103" stroke="#8A8B8A" stroke-width="6.768" stroke-linecap="round" stroke-linejoin="round" mask="url(#mask-4)" points="704.690662 451.654607 1227.51462 451.654607 1227.51462 91.0446271 704.690662 91.0446271"></polygon>
                    <polygon id="Fill-104" fill="#E4E4E3" mask="url(#mask-4)" points="684.837635 91.0429727 1249.25519 91.0429727 1249.25519 48.2884608 684.837635 48.2884608"></polygon>
                    <polygon id="Stroke-105" stroke="#8A8B8A" stroke-width="6.813" stroke-linecap="round" stroke-linejoin="round" mask="url(#mask-4)" points="684.837635 91.0429727 1249.25519 91.0429727 1249.25519 48.2884608 684.837635 48.2884608"></polygon>
                    <polygon id="Fill-106" fill="#F9ED97" mask="url(#mask-4)" points="648.373309 92.6980287 662.811875 134.1009 677.248786 175.505427 648.373309 175.505427 619.497833 175.505427 633.934744 134.1009"></polygon>
                    <polygon id="Stroke-107" stroke="#8A8B8A" stroke-width="8.532" stroke-linecap="round" stroke-linejoin="round" mask="url(#mask-4)" points="648.373309 92.6980287 662.811875 134.1009 677.248786 175.505427 648.373309 175.505427 619.497833 175.505427 633.934744 134.1009"></polygon>
                    <polygon id="Fill-108" fill="#F9ED97" mask="url(#mask-4)" points="1283.09334 92.6980287 1297.53191 134.1009 1311.96882 175.505427 1283.09334 175.505427 1254.21786 175.505427 1268.65477 134.1009"></polygon>
                    <polygon id="Stroke-109" stroke="#8A8B8A" stroke-width="8.532" stroke-linecap="round" stroke-linejoin="round" mask="url(#mask-4)" points="1283.09334 92.6980287 1297.53191 134.1009 1311.96882 175.505427 1283.09334 175.505427 1254.21786 175.505427 1268.65477 134.1009"></polygon>
                    <path d="M670.703457,98.5749336 C670.703457,110.908443 660.706637,120.905948 648.373971,120.905948 C636.041305,120.905948 626.04283,110.908443 626.04283,98.5749336 C626.04283,86.2414241 636.041305,76.2439194 648.373971,76.2439194 C660.706637,76.2439194 670.703457,86.2414241 670.703457,98.5749336" id="Fill-110" fill="#F9ED97" mask="url(#mask-4)"></path>
                    <path d="M670.703457,98.5749336 C670.703457,110.908443 660.706637,120.905948 648.373971,120.905948 C636.041305,120.905948 626.04283,110.908443 626.04283,98.5749336 C626.04283,86.2414241 636.041305,76.2439194 648.373971,76.2439194 C660.706637,76.2439194 670.703457,86.2414241 670.703457,98.5749336 Z" id="Stroke-111" stroke="#8A8B8A" stroke-width="8.532" stroke-linecap="round" stroke-linejoin="round" mask="url(#mask-4)"></path>
                    <path d="M1305.32721,98.5749336 C1305.32721,110.908443 1295.33039,120.905948 1282.99772,120.905948 C1270.66506,120.905948 1260.66658,110.908443 1260.66658,98.5749336 C1260.66658,86.2414241 1270.66506,76.2439194 1282.99772,76.2439194 C1295.33039,76.2439194 1305.32721,86.2414241 1305.32721,98.5749336" id="Fill-112" fill="#F9ED97" mask="url(#mask-4)"></path>
                    <path d="M1305.32721,98.5749336 C1305.32721,110.908443 1295.33039,120.905948 1282.99772,120.905948 C1270.66506,120.905948 1260.66658,110.908443 1260.66658,98.5749336 C1260.66658,86.2414241 1270.66506,76.2439194 1282.99772,76.2439194 C1295.33039,76.2439194 1305.32721,86.2414241 1305.32721,98.5749336 Z" id="Stroke-113" stroke="#8A8B8A" stroke-width="8.532" stroke-linecap="round" stroke-linejoin="round" mask="url(#mask-4)"></path>
                    <polygon id="Fill-114" fill="#C7AE99" mask="url(#mask-4)" points="935.156834 790.209856 979.081305 790.209856 979.081305 451.654607 935.156834 451.654607"></polygon>
                    <polygon id="Stroke-115" stroke="#8A8B8A" stroke-width="7" stroke-linecap="round" stroke-linejoin="round" mask="url(#mask-4)" points="935.156834 790.209856 979.081305 790.209856 979.081305 451.654607 935.156834 451.654607"></polygon>
                    <line x1="957.584584" y1="161.200375" x2="957.584584" y2="186.501027" id="Stroke-116" stroke="#8A8B8A" stroke-width="7" stroke-linecap="round" stroke-linejoin="round" mask="url(#mask-4)"></line>
                    <line x1="861.004511" y1="192.826769" x2="861.004511" y2="221.922602" id="Stroke-117" stroke="#8A8B8A" stroke-width="7" stroke-linecap="round" stroke-linejoin="round" mask="url(#mask-4)"></line>
                    <line x1="1070.98969" y1="192.826769" x2="1059.60493" y2="221.922602" id="Stroke-118" stroke="#8A8B8A" stroke-width="7" stroke-linecap="round" stroke-linejoin="round" mask="url(#mask-4)"></line>
                    <line x1="902.429198" y1="239.625945" x2="1017.24127" y2="239.625945" id="Stroke-119" stroke="#8A8B8A" stroke-width="7" stroke-linecap="round" stroke-linejoin="round" mask="url(#mask-4)"></line>
                    <line x1="912.246033" y1="301.041362" x2="1001.99078" y2="301.041362" id="Stroke-120" stroke="#8A8B8A" stroke-width="7" stroke-linecap="round" stroke-linejoin="round" mask="url(#mask-4)"></line>
                    <line x1="882.205446" y1="367.797" x2="1032.03203" y2="367.797" id="Stroke-121" stroke="#8A8B8A" stroke-width="7" stroke-linecap="round" stroke-linejoin="round" mask="url(#mask-4)"></line>
                    <line x1="957.118739" y1="239.625945" x2="957.118739" y2="367.796834" id="Stroke-122" stroke="#8A8B8A" stroke-width="7" stroke-linecap="round" stroke-linejoin="round" mask="url(#mask-4)"></line>
                    <line x1="993.494726" y1="328.23034" x2="1008.22444" y2="342.961067" id="Stroke-123" stroke="#8A8B8A" stroke-width="7" stroke-linecap="round" stroke-linejoin="round" mask="url(#mask-4)"></line>
                    <line x1="861.004511" y1="192.826769" x2="1070.98903" y2="192.826769" id="Stroke-124" stroke="#8A8B8A" stroke-width="7" stroke-linecap="round" stroke-linejoin="round" mask="url(#mask-4)"></line>
                </g>
                <g id="Group-178" transform="translate(934.000000, 414.000000)">
                    <path d="M141.062992,157.039672 C141.062992,157.039672 196.098914,168.751689 206.711155,197.062895 C217.321744,225.374101 243.107077,297.132526 209.237801,306.769645 C175.366872,316.40511 173.496262,286.875418 173.496262,286.875418 L180.940694,395.241337 L10.1450844,395.241337 C10.1450844,395.241337 -10.5720858,236.525647 10.1450844,190.252929 C30.8639071,143.978557 141.062992,157.039672 141.062992,157.039672" id="Fill-126" fill="#B9DDC9"></path>
                    <path d="M141.062992,157.039672 C141.062992,157.039672 196.098914,168.751689 206.711155,197.062895 C217.321744,225.374101 243.107077,297.132526 209.237801,306.769645 C175.366872,316.40511 173.496262,286.875418 173.496262,286.875418 L180.940694,395.241337 L10.1450844,395.241337 C10.1450844,395.241337 -10.5720858,236.525647 10.1450844,190.252929 C30.8639071,143.978557 141.062992,157.039672 141.062992,157.039672 Z" id="Stroke-128" stroke="#8A8B8A" stroke-width="3" stroke-linecap="round" stroke-linejoin="round"></path>
                    <path d="M43.4573092,145.9984 C33.1259901,166.767226 32.4286426,211.575116 90.9033801,284.070915 C90.9033801,284.070915 160.636479,174.924636 139.139338,145.9984 L43.4573092,145.9984 Z" id="Fill-130" fill="#FFFFFE"></path>
                    <path d="M43.4573092,145.9984 C33.1259901,166.767226 32.4286426,211.575116 90.9033801,284.070915 C90.9033801,284.070915 160.636479,174.924636 139.139338,145.9984 L43.4573092,145.9984 Z" id="Stroke-132" stroke="#8A8B8A" stroke-width="3" stroke-linecap="round" stroke-linejoin="round"></path>
                    <path d="M40.6436277,127.468977 C40.6518901,112.425549 24.7070887,86.5827285 24.7070887,60.9631041 C24.7070887,26.6338655 53.5974362,0.0916965666 91.1500957,0.0916965666 C128.674663,0.0916965666 157.100663,26.6338655 157.100663,60.9631041 C157.100663,92.0006111 140.002429,102.446196 140.002429,126.042175 C140.002429,148.300629 121.461578,179.042194 91.1930603,179.042194 C67.7410319,179.042194 40.6254504,163.201872 40.6436277,127.468977" id="Fill-134" fill="#F7D9BA"></path>
                    <path d="M40.6436277,127.468977 C40.6518901,112.425549 24.7070887,86.5827285 24.7070887,60.9631041 C24.7070887,26.6338655 53.5974362,0.0916965666 91.1500957,0.0916965666 C128.674663,0.0916965666 157.100663,26.6338655 157.100663,60.9631041 C157.100663,92.0006111 140.002429,102.446196 140.002429,126.042175 C140.002429,148.300629 121.461578,179.042194 91.1930603,179.042194 C67.7410319,179.042194 40.6254504,163.201872 40.6436277,127.468977 Z" id="Stroke-136" stroke="#8A8B8A" stroke-width="4" stroke-linecap="round" stroke-linejoin="round"></path>
                    <g id="Group-141" transform="translate(75.370360, 45.282657)">
                        <path d="M0.483698729,3.35538382 C0.483698729,3.35538382 11.3421597,-3.33058424 23.5920108,2.24105581" id="Fill-138" fill="#F7D9BA"></path>
                        <path d="M0.483698729,3.35538382 C0.483698729,3.35538382 11.3421597,-3.33058424 23.5920108,2.24105581" id="Stroke-140" stroke="#8A8B8A" stroke-width="3" stroke-linecap="round" stroke-linejoin="round"></path>
                    </g>
                    <g id="Group-145" transform="translate(65.455467, 28.106196)">
                        <path d="M0.63457036,4.22314206 C0.63457036,4.22314206 28.2178044,-4.27815561 44.6434782,3.52214047" id="Fill-142" fill="#F7D9BA"></path>
                        <path d="M0.63457036,4.22314206 C0.63457036,4.22314206 28.2178044,-4.27815561 44.6434782,3.52214047" id="Stroke-144" stroke="#8A8B8A" stroke-width="3" stroke-linecap="round" stroke-linejoin="round"></path>
                    </g>
                    <g id="Group-149" transform="translate(97.496454, 95.891728)">
                        <path d="M0.180451064,9.0190511 C0.180451064,9.0190511 1.61150071,0.248264612 7.10765674,0.248264612 C12.6038128,0.248264612 14.0183376,8.44039412 14.0183376,8.44039412" id="Fill-146" fill="#F7D9BA"></path>
                        <path d="M0.180451064,9.0190511 C0.180451064,9.0190511 1.61150071,0.248264612 7.10765674,0.248264612 C12.6038128,0.248264612 14.0183376,8.44039412 14.0183376,8.44039412" id="Stroke-148" stroke="#8A8B8A" stroke-width="3" stroke-linecap="round" stroke-linejoin="round"></path>
                    </g>
                    <g id="Group-153" transform="translate(63.802984, 95.891728)">
                        <path d="M0.290523552,9.0190511 C0.290523552,9.0190511 1.7215732,0.248264612 7.21772923,0.248264612 C12.7138853,0.248264612 14.1284101,8.44039412 14.1284101,8.44039412" id="Fill-150" fill="#F7D9BA"></path>
                        <path d="M0.290523552,9.0190511 C0.290523552,9.0190511 1.7215732,0.248264612 7.21772923,0.248264612 C12.7138853,0.248264612 14.1284101,8.44039412 14.1284101,8.44039412" id="Stroke-152" stroke="#8A8B8A" stroke-width="3" stroke-linecap="round" stroke-linejoin="round"></path>
                    </g>
                    <g id="Group-157" transform="translate(104.106383, 71.735548)">
                        <path d="M0.406675887,0.228982833 C0.406675887,0.228982833 22.4375695,8.06399832 28.0064348,16.4214584" id="Fill-154" fill="#F7D9BA"></path>
                        <path d="M0.406675887,0.228982833 C0.406675887,0.228982833 22.4375695,8.06399832 28.0064348,16.4214584" id="Stroke-156" stroke="#8A8B8A" stroke-width="4" stroke-linecap="round" stroke-linejoin="round"></path>
                    </g>
                    <g id="Group-161" transform="translate(50.583126, 71.092143)">
                        <path d="M27.6541427,0.206105318 C27.6541427,0.206105318 5.62324908,8.04112081 0.0543838353,16.3985809" id="Fill-158" fill="#F7D9BA"></path>
                        <path d="M27.6541427,0.206105318 C27.6541427,0.206105318 5.62324908,8.04112081 0.0543838353,16.3985809" id="Stroke-160" stroke="#8A8B8A" stroke-width="4" stroke-linecap="round" stroke-linejoin="round"></path>
                    </g>
                    <path d="M82.6750099,132.931499 C82.6750099,132.931499 52.4428468,153.561447 50.6383362,192.138028 C50.6383362,192.138028 76.5393433,169.410035 85.515627,157.567407 C85.515627,157.567407 106.541811,187.470746 121.914854,191.742888 C121.914854,191.742888 121.017556,152.316508 93.6590596,132.222231 L82.6750099,132.931499 Z" id="Fill-162" fill="#FFFFFE"></path>
                    <path d="M82.6750099,132.931499 C82.6750099,132.931499 52.4428468,153.561447 50.6383362,192.138028 C50.6383362,192.138028 76.5393433,169.410035 85.515627,157.567407 C85.515627,157.567407 106.541811,187.470746 121.914854,191.742888 C121.914854,191.742888 121.017556,152.316508 93.6590596,132.222231 L82.6750099,132.931499 Z" id="Stroke-164" stroke="#8A8B8A" stroke-width="3" stroke-linecap="round" stroke-linejoin="round"></path>
                    <g id="Group-169" transform="translate(79.319149, 127.947940)">
                        <path d="M0.425844681,0.503927563 C0.425844681,0.503927563 1.00586596,8.04465465 7.96281631,8.04465465 C14.9197667,8.04465465 15.4997879,0.503927563 15.4997879,0.503927563" id="Fill-166" fill="#F7D9BA"></path>
                        <path d="M0.425844681,0.503927563 C0.425844681,0.503927563 1.00586596,8.04465465 7.96281631,8.04465465 C14.9197667,8.04465465 15.4997879,0.503927563 15.4997879,0.503927563" id="Stroke-168" stroke="#8A8B8A" stroke-width="3" stroke-linecap="round" stroke-linejoin="round"></path>
                    </g>
                    <path d="M203.211694,218.843709 L203.211694,407.386685 L189.763793,407.386685 C189.763793,407.386685 188.605403,185.192326 189.763793,158.793994 C189.805105,157.883023 189.763793,140.404275 175.963913,140.379476 C160.39753,140.35137 144.857587,130.054582 141.446864,99.3708824 C137.963431,68.0109808 158.693821,42.4872481 189.763793,42.4872481 C220.835417,42.4872481 235.582169,61.3398925 231.490623,71.6118805 C227.096672,82.6460424 211.938452,69.6444468 195.838318,66.1146392 C181.235332,62.9138394 157.65441,73.5412882 160.622268,97.9606127 C163.590126,122.378284 176.096112,117.866413 189.763793,125.866759 C205.682155,135.184789 203.274488,156.940639 203.211694,158.059926 C202.844843,164.635123 203.211694,188.417925 203.211694,218.843709" id="Fill-170" fill="#C7AE99"></path>
                    <path d="M203.211694,218.843709 L203.211694,407.386685 L189.763793,407.386685 C189.763793,407.386685 188.605403,185.192326 189.763793,158.793994 C189.805105,157.883023 189.763793,140.404275 175.963913,140.379476 C160.39753,140.35137 144.857587,130.054582 141.446864,99.3708824 C137.963431,68.0109808 158.693821,42.4872481 189.763793,42.4872481 C220.835417,42.4872481 235.582169,61.3398925 231.490623,71.6118805 C227.096672,82.6460424 211.938452,69.6444468 195.838318,66.1146392 C181.235332,62.9138394 157.65441,73.5412882 160.622268,97.9606127 C163.590126,122.378284 176.096112,117.866413 189.763793,125.866759 C205.682155,135.184789 203.274488,156.940639 203.211694,158.059926 C202.844843,164.635123 203.211694,188.417925 203.211694,218.843709 Z" id="Stroke-172" stroke="#8A8B8A" stroke-width="3" stroke-linecap="round" stroke-linejoin="round"></path>
                    <path d="M212.759736,277.807698 C212.759736,288.208643 205.900282,296.640502 197.439573,296.640502 C188.977211,296.640502 182.11941,288.208643 182.11941,277.807698 C182.11941,267.406752 188.977211,258.974893 197.439573,258.974893 C205.900282,258.974893 212.759736,267.406752 212.759736,277.807698" id="Fill-174" fill="#F7D9BA"></path>
                    <path d="M212.759736,277.807698 C212.759736,288.208643 205.900282,296.640502 197.439573,296.640502 C188.977211,296.640502 182.11941,288.208643 182.11941,277.807698 C182.11941,267.406752 188.977211,258.974893 197.439573,258.974893 C205.900282,258.974893 212.759736,267.406752 212.759736,277.807698 Z" id="Stroke-176" stroke="#8A8B8A" stroke-width="3" stroke-linecap="round" stroke-linejoin="round"></path>
                </g>
                <g id="Group-237" transform="translate(685.000000, 414.000000)">
                    <path d="M197.91872,146.407949 C197.91872,146.407949 241.807977,166.166202 251.882331,173.392846 C261.956685,180.61949 311.122905,283.058127 288.338196,292.962167 C265.553487,302.866207 246.851769,290.597023 246.851769,290.597023 C246.851769,290.597023 244.164503,366.852984 243.420337,377.084225 L65.9483216,380.97409 C65.9483216,380.97409 51.7777473,349.953167 44.4038891,301.730141 C44.4038891,301.730141 14.6703231,308.573114 3.33419442,279.930622 C-8.00193431,251.28647 20.0597387,193.091306 29.9720298,181.586143 C54.5592744,153.04829 95.3494934,139.368988 95.3494934,139.368988 L197.91872,146.407949 Z" id="Fill-179" fill="#FDDE99"></path>
                    <path d="M197.91872,146.407949 C197.91872,146.407949 241.807977,166.166202 251.882331,173.392846 C261.956685,180.61949 311.122905,283.058127 288.338196,292.962167 C265.553487,302.866207 246.851769,290.597023 246.851769,290.597023 C246.851769,290.597023 244.164503,366.852984 243.420337,377.084225 L65.9483216,380.97409 C65.9483216,380.97409 51.7777473,349.953167 44.4038891,301.730141 C44.4038891,301.730141 14.6703231,308.573114 3.33419442,279.930622 C-8.00193431,251.28647 20.0597387,193.091306 29.9720298,181.586143 C54.5592744,153.04829 95.3494934,139.368988 95.3494934,139.368988 L197.91872,146.407949 Z" id="Stroke-181" stroke="#8A8B8A" stroke-width="4" stroke-linecap="round" stroke-linejoin="round"></path>
                    <path d="M110.451267,149.533958 C110.451267,149.533958 97.4845883,178.580052 95.7068584,213.431046 C93.0725108,265.100472 104.813797,329.527392 136.981612,330.967406 C181.805211,332.975453 199.317917,268.012057 198.578712,215.74138 C198.080948,180.573151 184.165044,151.360965 184.165044,151.360965 L110.451267,149.533958 Z" id="Fill-183" fill="#F7D9BA"></path>
                    <path d="M110.451267,149.533958 C110.451267,149.533958 97.4845883,178.580052 95.7068584,213.431046 C93.0725108,265.100472 104.813797,329.527392 136.981612,330.967406 C181.805211,332.975453 199.317917,268.012057 198.578712,215.74138 C198.080948,180.573151 184.165044,151.360965 184.165044,151.360965 L110.451267,149.533958 Z" id="Stroke-185" stroke="#8A8B8A" stroke-width="4" stroke-linecap="round" stroke-linejoin="round"></path>
                    <path d="M94.5036247,51.9925316 C93.7826105,35.1608119 101.655887,0.303174236 147.670151,0.303174236 C197.044738,0.303174236 202.344854,35.7969427 202.344854,45.1761336 C202.344854,54.5553245 199.037449,69.9852313 214.07291,98.4649528 C228.886775,126.522802 212.220764,155.328063 148.315095,155.328063 C84.4094263,155.328063 73.8009266,118.819475 83.2931773,99.3336117 C92.7854281,79.8477487 95.0890353,65.6718333 94.5036247,51.9925316" id="Fill-187" fill="#F7D9BA"></path>
                    <path d="M94.5036247,51.9925316 C93.7826105,35.1608119 101.655887,0.303174236 147.670151,0.303174236 C197.044738,0.303174236 202.344854,35.7969427 202.344854,45.1761336 C202.344854,54.5553245 199.037449,69.9852313 214.07291,98.4649528 C228.886775,126.522802 212.220764,155.328063 148.315095,155.328063 C84.4094263,155.328063 73.8009266,118.819475 83.2931773,99.3336117 C92.7854281,79.8477487 95.0890353,65.6718333 94.5036247,51.9925316 Z" id="Stroke-189" stroke="#8A8B8A" stroke-width="4" stroke-linecap="round" stroke-linejoin="round"></path>
                    <path d="M154.858795,53.5855159 C154.858795,53.5855159 172.088718,53.168626 180.355575,58.2310971" id="Stroke-191" stroke="#8A8B8A" stroke-width="4" stroke-linecap="round" stroke-linejoin="round"></path>
                    <path d="M157.63503,76.5594679 C157.63503,76.5594679 164.024935,71.827519 169.209292,71.9089039 C174.393648,71.9902888 182.976363,76.6906802 184.165375,78.0160909" id="Stroke-193" stroke="#8A8B8A" stroke-width="3" stroke-linecap="round" stroke-linejoin="round"></path>
                    <path d="M136.450774,52.334182 C136.450774,52.334182 119.22085,51.9172921 110.953993,56.9797632" id="Stroke-195" stroke="#8A8B8A" stroke-width="4" stroke-linecap="round" stroke-linejoin="round"></path>
                    <path d="M136.982108,75.308134 C136.982108,75.308134 130.592203,70.5761852 125.407846,70.65757 C120.22349,70.7389549 111.640775,75.4393463 110.451764,76.764757" id="Stroke-197" stroke="#8A8B8A" stroke-width="3" stroke-linecap="round" stroke-linejoin="round"></path>
                    <path d="M133.294352,94.2294517 C133.294352,94.2294517 133.436571,100.431311 143.58038,100.607368 C153.722536,100.785086 156.259315,97.0646348 156.512331,94.2294517" id="Stroke-199" stroke="#8A8B8A" stroke-width="3" stroke-linecap="round" stroke-linejoin="round"></path>
                    <path d="M122.064226,114.825471 C122.064226,114.825471 120.728035,123.350951 143.218385,123.688117 C165.708735,124.026944 169.67762,120.241717 170.239879,114.825471" id="Stroke-201" stroke="#8A8B8A" stroke-width="3" stroke-linecap="round" stroke-linejoin="round"></path>
                    <path d="M113.927184,115.653437 C113.927184,115.653437 124.572065,116.131781 126.000864,109.589434" id="Stroke-203" stroke="#8A8B8A" stroke-width="3" stroke-linecap="round" stroke-linejoin="round"></path>
                    <path d="M166.853428,108.587403 C166.853428,108.587403 172.305684,119.081069 179.22312,118.210749" id="Stroke-205" stroke="#8A8B8A" stroke-width="3" stroke-linecap="round" stroke-linejoin="round"></path>
                    <g id="Group-210" transform="translate(154.803262, 224.223619)">
                        <path d="M0.0555328955,0.451826191 C0.0555328955,0.451826191 14.4443959,29.6988907 40.9317444,30.8166869" id="Fill-207" fill="#F7D9BA"></path>
                        <path d="M0.0555328955,0.451826191 C0.0555328955,0.451826191 14.4443959,29.6988907 40.9317444,30.8166869" id="Stroke-209" stroke="#8A8B8A" stroke-width="4" stroke-linecap="round" stroke-linejoin="round"></path>
                    </g>
                    <g id="Group-214" transform="translate(96.923684, 223.213009)">
                        <path d="M29.0775108,0.000498274709 C29.0775108,0.000498274709 15.136801,28.6994606 0.177410749,31.8269648" id="Fill-211" fill="#F7D9BA"></path>
                        <path d="M29.0775108,0.000498274709 C29.0775108,0.000498274709 15.136801,28.6994606 0.177410749,31.8269648" id="Stroke-213" stroke="#8A8B8A" stroke-width="4" stroke-linecap="round" stroke-linejoin="round"></path>
                    </g>
                    <path d="M56.2794555,296.357245 C56.2794555,306.806065 49.4149375,315.276735 40.9479822,315.276735 C32.4793731,315.276735 25.6165089,306.806065 25.6165089,296.357245 C25.6165089,285.908424 32.4793731,277.437754 40.9479822,277.437754 C49.4149375,277.437754 56.2794555,285.908424 56.2794555,296.357245" id="Fill-215" fill="#F7D9BA"></path>
                    <path d="M56.2794555,296.357245 C56.2794555,306.806065 49.4149375,315.276735 40.9479822,315.276735 C32.4793731,315.276735 25.6165089,306.806065 25.6165089,296.357245 C25.6165089,285.908424 32.4793731,277.437754 40.9479822,277.437754 C49.4149375,277.437754 56.2794555,285.908424 56.2794555,296.357245 Z" id="Stroke-217" stroke="#8A8B8A" stroke-width="3" stroke-linecap="round" stroke-linejoin="round"></path>
                    <path d="M64.3963221,225.223547 C64.3963221,216.515366 53.8986204,209.456475 40.9484783,209.456475 C27.9966825,209.456475 17.4989808,216.515366 17.4989808,225.223547 C17.4989808,229.736255 20.3334264,233.795533 24.8529946,236.670578 C23.6061031,238.811499 22.8883963,241.228131 22.8883963,243.795907 C22.8883963,252.504088 30.9733465,259.562979 40.9484783,259.562979 C50.9219564,259.562979 59.0069065,252.504088 59.0069065,243.795907 C59.0069065,241.228131 58.2891998,238.811499 57.0423083,236.670578 C61.5618765,233.795533 64.3963221,229.736255 64.3963221,225.223547" id="Fill-219" fill="#B9DDC9"></path>
                    <path d="M64.3963221,225.223547 C64.3963221,216.515366 53.8986204,209.456475 40.9484783,209.456475 C27.9966825,209.456475 17.4989808,216.515366 17.4989808,225.223547 C17.4989808,229.736255 20.3334264,233.795533 24.8529946,236.670578 C23.6061031,238.811499 22.8883963,241.228131 22.8883963,243.795907 C22.8883963,252.504088 30.9733465,259.562979 40.9484783,259.562979 C50.9219564,259.562979 59.0069065,252.504088 59.0069065,243.795907 C59.0069065,241.228131 58.2891998,238.811499 57.0423083,236.670578 C61.5618765,233.795533 64.3963221,229.736255 64.3963221,225.223547 Z" id="Stroke-221" stroke="#8A8B8A" stroke-width="3" stroke-linecap="round" stroke-linejoin="round"></path>
                    <line x1="40.9478168" y1="276.923701" x2="40.9478168" y2="205.605642" id="Stroke-223" stroke="#8A8B8A" stroke-width="3" stroke-linecap="round" stroke-linejoin="round"></line>
                    <path d="M230.595876,283.097324 L212.714394,277.438585 C212.714394,277.438585 212.714394,255.399894 219.112568,249.676379 C219.112568,249.676379 231.010955,252.342148 238.912344,266.463254 C246.813733,280.584359 230.595876,283.097324 230.595876,283.097324" id="Fill-225" fill="#FFFFFE"></path>
                    <path d="M230.595876,283.097324 L212.714394,277.438585 C212.714394,277.438585 212.714394,255.399894 219.112568,249.676379 C219.112568,249.676379 231.010955,252.342148 238.912344,266.463254 C246.813733,280.584359 230.595876,283.097324 230.595876,283.097324 Z" id="Stroke-227" stroke="#8A8B8A" stroke-width="4" stroke-linecap="round" stroke-linejoin="round"></path>
                    <path d="M262.865394,289.918705 C262.865394,289.918705 320.943416,287.980416 337.788027,380.973425 L230.085709,380.973425 C230.085709,380.973425 248.848614,328.184542 244.193442,303.837179 L262.865394,289.918705 Z" id="Fill-229" fill="#FFFFFE"></path>
                    <path d="M262.865394,289.918705 C262.865394,289.918705 320.943416,287.980416 337.788027,380.973425 L230.085709,380.973425 C230.085709,380.973425 248.848614,328.184542 244.193442,303.837179 L262.865394,289.918705 Z" id="Stroke-231" stroke="#8A8B8A" stroke-width="4" stroke-linecap="round" stroke-linejoin="round"></path>
                    <path d="M262.865394,285.381914 C262.865394,295.830734 256.000876,304.301405 247.533921,304.301405 C239.065312,304.301405 232.202447,295.830734 232.202447,285.381914 C232.202447,274.933093 239.065312,266.462423 247.533921,266.462423 C256.000876,266.462423 262.865394,274.933093 262.865394,285.381914" id="Fill-233" fill="#F7D9BA"></path>
                    <path d="M262.865394,285.381914 C262.865394,295.830734 256.000876,304.301405 247.533921,304.301405 C239.065312,304.301405 232.202447,295.830734 232.202447,285.381914 C232.202447,274.933093 239.065312,266.462423 247.533921,266.462423 C256.000876,266.462423 262.865394,274.933093 262.865394,285.381914 Z" id="Stroke-235" stroke="#8A8B8A" stroke-width="3" stroke-linecap="round" stroke-linejoin="round"></path>
                </g>
                <g id="Bishamonten" transform="translate(1338.000000, 397.000000)">
                    <path d="M139.280187,180.610941 C139.280187,180.610941 173.628565,187.669838 189.121812,205.473485 C205.673645,224.493613 242.160799,319.945127 214.233735,333.26683 C199.21411,340.429997 187.072775,335.310848 180.626534,319.236755 L180.626534,406.646257 L0.188285413,406.646257 L0.188285413,308.688959 C0.188285413,308.688959 7.42057241,230.923581 16.3313084,216.797512 C36.9247138,184.149493 64.4894988,178.609955 64.4894988,178.609955 L139.280187,180.610941 Z" id="Fill-238" fill="#93AB9B"></path>
                    <path d="M139.280187,180.610941 C139.280187,180.610941 173.628565,187.669838 189.121812,205.473485 C205.673645,224.493613 242.160799,319.945127 214.233735,333.26683 C199.21411,340.429997 187.072775,335.310848 180.626534,319.236755 L180.626534,406.646257 L0.188285413,406.646257 L0.188285413,308.688959 C0.188285413,308.688959 7.42057241,230.923581 16.3313084,216.797512 C36.9247138,184.149493 64.4894988,178.609955 64.4894988,178.609955 L139.280187,180.610941 Z" id="Stroke-240" stroke="#8A8B8A" stroke-width="4" stroke-linecap="round" stroke-linejoin="round"></path>
                    <path d="M59.9611765,176.954383 C59.9611765,176.954383 19.3377262,173.996763 10.8341387,189.880523 C3.09000791,204.347538 -5.51162754,232.01378 8.94629913,232.861178 C23.4058876,233.710232 65.9703561,227.824784 68.1157795,214.297852 C70.0518122,202.09167 70.2196571,177.052032 59.9611765,176.954383" id="Fill-242" fill="#83A38F"></path>
                    <path d="M59.9611765,176.954383 C59.9611765,176.954383 19.3377262,173.996763 10.8341387,189.880523 C3.09000791,204.347538 -5.51162754,232.01378 8.94629913,232.861178 C23.4058876,233.710232 65.9703561,227.824784 68.1157795,214.297852 C70.0518122,202.09167 70.2196571,177.052032 59.9611765,176.954383 Z" id="Stroke-244" stroke="#8A8B8A" stroke-width="4" stroke-linecap="round" stroke-linejoin="round"></path>
                    <path d="M145.181348,176.954383 C145.181348,176.954383 185.804798,173.996763 194.308386,189.880523 C202.052516,204.347538 210.654152,232.01378 196.196225,232.861178 C181.738299,233.710232 139.172168,227.824784 137.026745,214.297852 C135.090712,202.09167 134.922867,177.052032 145.181348,176.954383" id="Fill-246" fill="#83A38F"></path>
                    <path d="M145.181348,176.954383 C145.181348,176.954383 185.804798,173.996763 194.308386,189.880523 C202.052516,204.347538 210.654152,232.01378 196.196225,232.861178 C181.738299,233.710232 139.172168,227.824784 137.026745,214.297852 C135.090712,202.09167 134.922867,177.052032 145.181348,176.954383 Z" id="Stroke-248" stroke="#8A8B8A" stroke-width="4" stroke-linecap="round" stroke-linejoin="round"></path>
                    <g id="Group-253" transform="translate(36.560274, 69.513171)">
                        <path d="M18.0878634,0.175934526 C18.0878634,0.175934526 -3.3962833,46.1390362 1.10063044,68.8350865 C5.59754418,91.5311368 31.525426,122.07721 63.0653099,122.022666 C94.6051939,121.967975 132.594643,99.5268066 132.706575,66.5461171 C132.81899,33.5637726 116.657687,0.546671437 116.657687,0.546671437 L18.0928489,0.175934526" id="Fill-250" fill="#F7D9BA"></path>
                        <path d="M18.0878634,0.175934526 C18.0878634,0.175934526 -3.3962833,46.1390362 1.10063044,68.8350865 C5.59754418,91.5311368 31.525426,122.07721 63.0653099,122.022666 C94.6051939,121.967975 132.594643,99.5268066 132.706575,66.5461171 C132.81899,33.5637726 116.657687,0.546671437 116.657687,0.546671437 L18.0928489,0.175934526" id="Stroke-252" stroke="#8A8B8A" stroke-width="4" stroke-linecap="round" stroke-linejoin="round"></path>
                    </g>
                    <path d="M111.267539,14.3783029 C111.267539,22.1108156 107.445328,28.3785865 102.730715,28.3785865 C98.0161013,28.3785865 94.1938908,22.1108156 94.1938908,14.3783029 C94.1938908,6.64579016 98.0161013,0.378019244 102.730715,0.378019244 C107.445328,0.378019244 111.267539,6.64579016 111.267539,14.3783029" id="Fill-254" fill="#83A38F"></path>
                    <path d="M111.267539,14.3783029 C111.267539,22.1108156 107.445328,28.3785865 102.730715,28.3785865 C98.0161013,28.3785865 94.1938908,22.1108156 94.1938908,14.3783029 C94.1938908,6.64579016 98.0161013,0.378019244 102.730715,0.378019244 C107.445328,0.378019244 111.267539,6.64579016 111.267539,14.3783029 Z" id="Stroke-256" stroke="#8A8B8A" stroke-width="3" stroke-linecap="round" stroke-linejoin="round"></path>
                    <path d="M48.6838275,75.4836903 C48.6838275,75.4836903 42.6563677,17.6884539 102.729884,17.6884539 C162.464387,17.6884539 159.581111,75.4836903 159.581111,75.4836903 L48.6838275,75.4836903 Z" id="Fill-258" fill="#83A38F"></path>
                    <path d="M48.6838275,75.4836903 C48.6838275,75.4836903 42.6563677,17.6884539 102.729884,17.6884539 C162.464387,17.6884539 159.581111,75.4836903 159.581111,75.4836903 L48.6838275,75.4836903 Z" id="Stroke-260" stroke="#8A8B8A" stroke-width="4" stroke-linecap="round" stroke-linejoin="round"></path>
                    <g id="Group-265" transform="translate(118.998945, 99.304530)">
                        <path d="M0.309527829,6.80202928 C0.309527829,6.80202928 19.5718069,-0.998341541 29.3068109,0.477985804" id="Fill-262" fill="#F7D9BA"></path>
                        <path d="M0.309527829,6.80202928 C0.309527829,6.80202928 19.5718069,-0.998341541 29.3068109,0.477985804" id="Stroke-264" stroke="#8A8B8A" stroke-width="4" stroke-linecap="round" stroke-linejoin="round"></path>
                    </g>
                    <g id="Group-269" transform="translate(59.825903, 99.304530)">
                        <path d="M29.9305671,6.55558854 C29.9305671,6.55558854 10.6682881,-1.24478228 0.933284094,0.231545062" id="Fill-266" fill="#F7D9BA"></path>
                        <path d="M29.9305671,6.55558854 C29.9305671,6.55558854 10.6682881,-1.24478228 0.933284094,0.231545062" id="Stroke-268" stroke="#8A8B8A" stroke-width="4" stroke-linecap="round" stroke-linejoin="round"></path>
                    </g>
                    <g id="Group-273" transform="translate(62.496703, 114.200209)">
                        <path d="M0.134370878,6.61186111 C0.134370878,6.61186111 12.8922448,-5.9650576 21.8827486,6.15837042" id="Fill-270" fill="#F7D9BA"></path>
                        <path d="M0.134370878,6.61186111 C0.134370878,6.61186111 12.8922448,-5.9650576 21.8827486,6.15837042" id="Stroke-272" stroke="#8A8B8A" stroke-width="3" stroke-linecap="round" stroke-linejoin="round"></path>
                    </g>
                    <g id="Group-277" transform="translate(122.322606, 114.200209)">
                        <path d="M22.3590293,6.61186111 C22.3590293,6.61186111 9.60115537,-5.9650576 0.610651543,6.15837042" id="Fill-274" fill="#F7D9BA"></path>
                        <path d="M22.3590293,6.61186111 C22.3590293,6.61186111 9.60115537,-5.9650576 0.610651543,6.15837042" id="Stroke-276" stroke="#8A8B8A" stroke-width="3" stroke-linecap="round" stroke-linejoin="round"></path>
                    </g>
                    <g id="Group-281" transform="translate(91.400686, 138.380745)">
                        <path d="M0.850358744,0.0903189959 C0.850358744,0.0903189959 1.33727513,7.11611449 10.3377499,7.11611449 C19.3398866,7.11611449 21.5285175,0.0903189959 21.5285175,0.0903189959" id="Fill-278" fill="#F7D9BA"></path>
                        <path d="M0.850358744,0.0903189959 C0.850358744,0.0903189959 1.33727513,7.11611449 10.3377499,7.11611449 C19.3398866,7.11611449 21.5285175,0.0903189959 21.5285175,0.0903189959" id="Stroke-280" stroke="#8A8B8A" stroke-width="3" stroke-linecap="round" stroke-linejoin="round"></path>
                    </g>
                    <g id="Group-285" transform="translate(109.027961, 149.966274)">
                        <line x1="0.287259298" y1="5.94928626" x2="24.6496966" y2="0.61828808" id="Fill-282" fill="#F7D9BA"></line>
                        <line x1="0.287259298" y1="5.94928626" x2="24.6496966" y2="0.61828808" id="Stroke-284" stroke="#8A8B8A" stroke-width="4" stroke-linecap="round" stroke-linejoin="round"></line>
                    </g>
                    <g id="Group-289" transform="translate(70.805856, 149.966274)">
                        <line x1="24.3716724" y1="5.94928626" x2="0.00923503034" y2="0.61828808" id="Fill-286" fill="#F7D9BA"></line>
                        <line x1="24.3716724" y1="5.94928626" x2="0.00923503034" y2="0.61828808" id="Stroke-288" stroke="#8A8B8A" stroke-width="4" stroke-linecap="round" stroke-linejoin="round"></line>
                    </g>
                    <g id="Group-293" transform="translate(88.077025, 163.852474)">
                        <path d="M0.160034292,0.494205544 C0.160034292,0.494205544 5.7554181,8.00493816 14.5132656,8.00493816 C23.2711132,8.00493816 28.866497,0.494205544 28.866497,0.494205544" id="Fill-290" fill="#F7D9BA"></path>
                        <path d="M0.160034292,0.494205544 C0.160034292,0.494205544 5.7554181,8.00493816 14.5132656,8.00493816 C23.2711132,8.00493816 28.866497,0.494205544 28.866497,0.494205544" id="Stroke-292" stroke="#8A8B8A" stroke-width="3" stroke-linecap="round" stroke-linejoin="round"></path>
                    </g>
                    <polygon id="Fill-294" fill="#93AB9B" points="165.877787 73.0303719 41.368449 73.0303719 38.983722 81.9975709 168.262514 81.9975709"></polygon>
                    <polygon id="Stroke-296" stroke="#8A8B8A" stroke-width="3" stroke-linecap="round" stroke-linejoin="round" points="165.877787 73.0303719 41.368449 73.0303719 38.983722 81.9975709 168.262514 81.9975709"></polygon>
                    <path d="M77.9232393,72.9198128 C77.9232393,31.6207139 102.731047,17.6882884 102.731047,17.6882884 C102.731047,17.6882884 102.767607,17.6684275 102.804168,17.6469115 C102.840728,17.6684275 102.877288,17.6882884 102.877288,17.6882884 C102.877288,17.6882884 127.685096,31.6207139 127.685096,72.9198128 L77.9232393,72.9198128 Z" id="Fill-298" fill="#93AB9B"></path>
                    <path d="M77.9232393,72.9198128 C77.9232393,31.6207139 102.731047,17.6882884 102.731047,17.6882884 C102.731047,17.6882884 102.767607,17.6684275 102.804168,17.6469115 C102.840728,17.6684275 102.877288,17.6882884 102.877288,17.6882884 C102.877288,17.6882884 127.685096,31.6207139 127.685096,72.9198128 L77.9232393,72.9198128 Z" id="Stroke-300" stroke="#8A8B8A" stroke-width="3" stroke-linecap="round" stroke-linejoin="round"></path>
                    <line x1="192.644395" y1="109.609195" x2="192.644395" y2="425.38436" id="Stroke-302" stroke="#8A8B8A" stroke-width="4" stroke-linecap="round" stroke-linejoin="round"></line>
                    <path d="M208.051559,293.793941 C208.051559,304.206021 201.1533,312.646906 192.644727,312.646906 C184.134492,312.646906 177.237895,304.206021 177.237895,293.793941 C177.237895,283.381861 184.134492,274.940976 192.644727,274.940976 C201.1533,274.940976 208.051559,283.381861 208.051559,293.793941" id="Fill-304" fill="#F7D9BA"></path>
                    <path d="M208.051559,293.793941 C208.051559,304.206021 201.1533,312.646906 192.644727,312.646906 C184.134492,312.646906 177.237895,304.206021 177.237895,293.793941 C177.237895,283.381861 184.134492,274.940976 192.644727,274.940976 C201.1533,274.940976 208.051559,283.381861 208.051559,293.793941 Z" id="Stroke-306" stroke="#8A8B8A" stroke-width="3" stroke-linecap="round" stroke-linejoin="round"></path>
                    <polygon id="Fill-308" fill="#CBCCC7" points="172.809116 93.8345054 192.644727 55.6254324 212.480338 93.8345054 192.644727 114.574256"></polygon>
                    <polygon id="Stroke-310" stroke="#8A8B8A" stroke-width="3" stroke-linecap="round" stroke-linejoin="round" points="172.809116 93.8345054 192.644727 55.6254324 212.480338 93.8345054 192.644727 114.574256"></polygon>
                </g>
                <g id="Group-380">
                    <path d="M1313.42359,602.443548 C1313.42359,602.443548 1349.91538,612.953915 1362.60371,625.295697 C1375.2904,637.635824 1407.84334,708.629192 1397.7423,724.461745 C1385.58995,743.510441 1365.56322,738.218034 1354.26614,725.59666 L1354.26614,794.081966 L1204.01771,794.081966 L1206.88789,722.380517 C1206.88789,722.380517 1201.50982,753.699856 1173.69308,744.896824 C1137.21784,733.35246 1160.15776,661.416087 1174.15297,639.69389 C1183.62208,624.994597 1210.95742,605.360245 1243.08191,602.443548 L1313.42359,602.443548 Z" id="Fill-313" fill="#BFBCD3"></path>
                    <path d="M1313.42359,602.443548 C1313.42359,602.443548 1349.91538,612.953915 1362.60371,625.295697 C1375.2904,637.635824 1407.84334,708.629192 1397.7423,724.461745 C1385.58995,743.510441 1365.56322,738.218034 1354.26614,725.59666 L1354.26614,794.081966 L1204.01771,794.081966 L1206.88789,722.380517 C1206.88789,722.380517 1201.50982,753.699856 1173.69308,744.896824 C1137.21784,733.35246 1160.15776,661.416087 1174.15297,639.69389 C1183.62208,624.994597 1210.95742,605.360245 1243.08191,602.443548 L1313.42359,602.443548 Z" id="Stroke-315" stroke="#8A8B8A" stroke-width="4" stroke-linecap="round" stroke-linejoin="round"></path>
                    <path d="M1249.59266,616.834462 C1249.59266,616.834462 1251.92189,649.924003 1255.70026,655.878168 L1271.3448,647.123113 L1287.0522,655.878168 C1287.0522,655.878168 1294.38563,635.87985 1292.74127,616.834462 L1249.59266,616.834462 Z" id="Fill-317" fill="#FFFFFE"></path>
                    <path d="M1249.59266,616.834462 C1249.59266,616.834462 1251.92189,649.924003 1255.70026,655.878168 L1271.3448,647.123113 L1287.0522,655.878168 C1287.0522,655.878168 1294.38563,635.87985 1292.74127,616.834462 L1249.59266,616.834462 Z" id="Stroke-319" stroke="#8A8B8A" stroke-width="3" stroke-linecap="round" stroke-linejoin="round"></path>
                    <path d="M1219.53255,572.073832 C1219.54082,557.020498 1206.88723,547.704604 1206.88723,522.06811 C1206.88723,487.716267 1235.80902,461.156621 1273.40256,461.156621 C1310.96798,461.156621 1339.42492,487.716267 1339.42492,522.06811 C1339.42492,553.126054 1325.61664,547.034574 1325.61664,570.64609 C1325.61664,592.9192 1303.74704,623.681008 1273.44557,623.681008 C1249.96802,623.681008 1219.51435,607.830256 1219.53255,572.073832" id="Fill-321" fill="#F7D9BA"></path>
                    <path d="M1219.53255,572.073832 C1219.54082,557.020498 1206.88723,547.704604 1206.88723,522.06811 C1206.88723,487.716267 1235.80902,461.156621 1273.40256,461.156621 C1310.96798,461.156621 1339.42492,487.716267 1339.42492,522.06811 C1339.42492,553.126054 1325.61664,547.034574 1325.61664,570.64609 C1325.61664,592.9192 1303.74704,623.681008 1273.44557,623.681008 C1249.96802,623.681008 1219.51435,607.830256 1219.53255,572.073832 Z" id="Stroke-323" stroke="#8A8B8A" stroke-width="4" stroke-linecap="round" stroke-linejoin="round"></path>
                    <path d="M1354.26567,478.638936 C1354.26567,461.583785 1271.4391,426.250886 1271.4391,426.250886 C1271.4391,426.250886 1188.61255,461.583785 1188.61255,478.638936 C1188.61255,487.837368 1189.77055,489.835877 1206.88739,489.729995 L1207.49286,513.637647 L1338.8312,513.637647 L1339.42509,489.180736 C1354.41122,488.968974 1354.26567,487.165684 1354.26567,478.638936" id="Fill-325" fill="#BFBCD3"></path>
                    <path d="M1354.26567,478.638936 C1354.26567,461.583785 1271.4391,426.250886 1271.4391,426.250886 C1271.4391,426.250886 1188.61255,461.583785 1188.61255,478.638936 C1188.61255,487.837368 1189.77055,489.835877 1206.88739,489.729995 L1207.49286,513.637647 L1338.8312,513.637647 L1339.42509,489.180736 C1354.41122,488.968974 1354.26567,487.165684 1354.26567,478.638936 Z" id="Stroke-327" stroke="#8A8B8A" stroke-width="4" stroke-linecap="round" stroke-linejoin="round"></path>
                    <path d="M1261.84642,582.309735 C1249.02408,584.050158 1227.01884,596.608665 1229.39107,626.950256 C1229.39107,626.950256 1239.36143,609.24162 1245.45911,604.579537 C1252.28633,599.363231 1274.63401,580.574275 1261.84642,582.309735" id="Fill-329" fill="#FFFFFE"></path>
                    <path d="M1261.84642,582.309735 C1249.02408,584.050158 1227.01884,596.608665 1229.39107,626.950256 C1229.39107,626.950256 1239.36143,609.24162 1245.45911,604.579537 C1252.28633,599.363231 1274.63401,580.574275 1261.84642,582.309735 Z" id="Stroke-331" stroke="#8A8B8A" stroke-width="3" stroke-linecap="round" stroke-linejoin="round"></path>
                    <path d="M1281.03144,582.309735 C1293.85378,584.050158 1315.85902,596.608665 1313.48679,626.950256 C1313.48679,626.950256 1303.51643,609.24162 1297.41875,604.579537 C1290.59153,599.363231 1268.24385,580.574275 1281.03144,582.309735" id="Fill-333" fill="#FFFFFE"></path>
                    <path d="M1281.03144,582.309735 C1293.85378,584.050158 1315.85902,596.608665 1313.48679,626.950256 C1313.48679,626.950256 1303.51643,609.24162 1297.41875,604.579537 C1290.59153,599.363231 1268.24385,580.574275 1281.03144,582.309735 Z" id="Stroke-335" stroke="#8A8B8A" stroke-width="3" stroke-linecap="round" stroke-linejoin="round"></path>
                    <g id="Group-340" transform="translate(1259.907916, 577.383610)">
                        <path d="M1.29240711e-05,0.207626485 C1.29240711e-05,0.207626485 0.886707593,7.75331888 11.5303522,7.75331888 C22.1756511,7.75331888 23.0623457,0.207626485 23.0623457,0.207626485" id="Fill-337" fill="#F7D9BA"></path>
                        <path d="M1.29240711e-05,0.207626485 C1.29240711e-05,0.207626485 0.886707593,7.75331888 11.5303522,7.75331888 C22.1756511,7.75331888 23.0623457,0.207626485 23.0623457,0.207626485" id="Stroke-339" stroke="#8A8B8A" stroke-width="3" stroke-linecap="round" stroke-linejoin="round"></path>
                    </g>
                    <g id="Group-344" transform="translate(1285.376414, 545.950119)">
                        <path d="M0.0208439418,3.25932221 C0.0208439418,3.25932221 15.928411,-6.70840344 23.6158553,10.4096144" id="Fill-341" fill="#F7D9BA"></path>
                        <path d="M0.0208439418,3.25932221 C0.0208439418,3.25932221 15.928411,-6.70840344 23.6158553,10.4096144" id="Stroke-343" stroke="#8A8B8A" stroke-width="3" stroke-linecap="round" stroke-linejoin="round"></path>
                    </g>
                    <g id="Group-348" transform="translate(1233.449779, 545.950119)">
                        <path d="M23.8956689,3.25932221 C23.8956689,3.25932221 7.98975618,-6.70840344 0.300657632,10.4096144" id="Fill-345" fill="#F7D9BA"></path>
                        <path d="M23.8956689,3.25932221 C23.8956689,3.25932221 7.98975618,-6.70840344 0.300657632,10.4096144" id="Stroke-347" stroke="#8A8B8A" stroke-width="3" stroke-linecap="round" stroke-linejoin="round"></path>
                    </g>
                    <g id="Group-352" transform="translate(1225.822294, 526.097387)">
                        <path d="M0.722259128,10.0342323 C0.722259128,10.0342323 15.2997842,-3.43915487 29.8773092,1.63983563" id="Fill-349" fill="#F7D9BA"></path>
                        <path d="M0.722259128,10.0342323 C0.722259128,10.0342323 15.2997842,-3.43915487 29.8773092,1.63983563" id="Stroke-351" stroke="#8A8B8A" stroke-width="4" stroke-linecap="round" stroke-linejoin="round"></path>
                    </g>
                    <g id="Group-356" transform="translate(1285.376414, 526.097387)">
                        <path d="M29.1755632,10.0342323 C29.1755632,10.0342323 14.5980381,-3.43915487 0.0205130856,1.63983563" id="Fill-353" fill="#F7D9BA"></path>
                        <path d="M29.1755632,10.0342323 C29.1755632,10.0342323 14.5980381,-3.43915487 0.0205130856,1.63983563" id="Stroke-355" stroke="#8A8B8A" stroke-width="4" stroke-linecap="round" stroke-linejoin="round"></path>
                    </g>
                    <g id="Group-360" transform="translate(1258.907916, 602.199525)">
                        <path d="M0.091812601,0.244023159 C0.091812601,0.244023159 11.4087496,17.4182904 24.7803037,0.523615796" id="Fill-357" fill="#F7D9BA"></path>
                        <path d="M0.091812601,0.244023159 C0.091812601,0.244023159 11.4087496,17.4182904 24.7803037,0.523615796" id="Stroke-359" stroke="#8A8B8A" stroke-width="3" stroke-linecap="round" stroke-linejoin="round"></path>
                    </g>
                    <polygon id="Fill-361" fill="#C7AE99" points="1337.75095 745.874902 1323.68791 739.555115 1359.99607 658.741263 1374.05911 665.061049"></polygon>
                    <polygon id="Stroke-363" stroke="#8A8B8A" stroke-width="3" stroke-linecap="round" stroke-linejoin="round" points="1337.75095 745.874902 1323.68791 739.555115 1359.99607 658.741263 1374.05911 665.061049"></polygon>
                    <polygon id="Fill-365" fill="#B9DDC9" points="1347.19872 737.166005 1323.92464 726.708578 1350.54864 667.451483 1373.82272 677.90891"></polygon>
                    <polygon id="Stroke-367" stroke="#8A8B8A" stroke-width="2.563" stroke-linecap="round" stroke-linejoin="round" points="1347.19872 737.166005 1323.92464 726.708578 1350.54864 667.451483 1373.82272 677.90891"></polygon>
                    <path d="M1386.45051,705.617202 C1386.45051,716.024996 1379.58359,724.462407 1371.11367,724.462407 C1362.64209,724.462407 1355.77683,716.024996 1355.77683,705.617202 C1355.77683,695.209407 1362.64209,686.771996 1371.11367,686.771996 C1379.58359,686.771996 1386.45051,695.209407 1386.45051,705.617202" id="Fill-369" fill="#F7D9BA"></path>
                    <path d="M1386.45051,705.617202 C1386.45051,716.024996 1379.58359,724.462407 1371.11367,724.462407 C1362.64209,724.462407 1355.77683,716.024996 1355.77683,705.617202 C1355.77683,695.209407 1362.64209,686.771996 1371.11367,686.771996 C1379.58359,686.771996 1386.45051,695.209407 1386.45051,705.617202 Z" id="Stroke-371" stroke="#8A8B8A" stroke-width="3" stroke-linecap="round" stroke-linejoin="round"></path>
                    <mask id="mask-6" fill="white">
                        <use xlink:href="#path-5"></use>
                    </mask>
                    <g id="Clip-374"></g>
                    <polygon id="Fill-373" fill="#C7AE99" mask="url(#mask-6)" points="1184.54136 810.479495 1195.44473 810.479495 1195.44473 602.919186 1184.54136 602.919186"></polygon>
                    <polygon id="Stroke-375" stroke="#8A8B8A" stroke-width="3" stroke-linecap="round" stroke-linejoin="round" mask="url(#mask-6)" points="1184.54136 810.479495 1195.44473 810.479495 1195.44473 602.919186 1184.54136 602.919186"></polygon>
                    <polygon id="Fill-376" fill="#C7AE99" mask="url(#mask-6)" points="1167.65446 619.701362 1214.74854 619.701362 1214.74854 600.788327 1167.65446 600.788327"></polygon>
                    <polygon id="Stroke-377" stroke="#8A8B8A" stroke-width="3" stroke-linecap="round" stroke-linejoin="round" mask="url(#mask-6)" points="1167.65446 619.701362 1214.74854 619.701362 1214.74854 600.788327 1167.65446 600.788327"></polygon>
                    <path d="M1206.88756,705.925415 C1206.88756,716.33321 1200.02064,724.770621 1191.55072,724.770621 C1183.07914,724.770621 1176.21388,716.33321 1176.21388,705.925415 C1176.21388,695.517621 1183.07914,687.08021 1191.55072,687.08021 C1200.02064,687.08021 1206.88756,695.517621 1206.88756,705.925415" id="Fill-378" fill="#F7D9BA" mask="url(#mask-6)"></path>
                    <path d="M1206.88756,705.925415 C1206.88756,716.33321 1200.02064,724.770621 1191.55072,724.770621 C1183.07914,724.770621 1176.21388,716.33321 1176.21388,705.925415 C1176.21388,695.517621 1183.07914,687.08021 1191.55072,687.08021 C1200.02064,687.08021 1206.88756,695.517621 1206.88756,705.925415 Z" id="Stroke-379" stroke="#8A8B8A" stroke-width="3" stroke-linecap="round" stroke-linejoin="round" mask="url(#mask-6)"></path>
                </g>
                <g id="Group-448" transform="translate(1521.000000, 435.000000)">
                    <line x1="301" y1="121" x2="316" y2="136" id="Stroke-381" stroke="#8A8B8A" stroke-width="3" stroke-linecap="round" stroke-linejoin="round"></line>
                    <line x1="341" y1="148" x2="356" y2="163" id="Stroke-382" stroke="#8A8B8A" stroke-width="3" stroke-linecap="round" stroke-linejoin="round"></line>
                    <line x1="324" y1="161" x2="339" y2="176" id="Stroke-383" stroke="#8A8B8A" stroke-width="3" stroke-linecap="round" stroke-linejoin="round"></line>
                    <path d="M170.600432,33.4844258 C170.600432,51.9730854 154.624918,66.9614327 134.920125,66.9614327 C115.213673,66.9614327 99.2381585,51.9730854 99.2381585,33.4844258 C99.2381585,14.9957662 115.213673,0.00741887067 134.920125,0.00741887067 C154.624918,0.00741887067 170.600432,14.9957662 170.600432,33.4844258" id="Fill-384" fill="#000307"></path>
                    <path d="M170.600432,33.4844258 C170.600432,51.9730854 154.624918,66.9614327 134.920125,66.9614327 C115.213673,66.9614327 99.2381585,51.9730854 99.2381585,33.4844258 C99.2381585,14.9957662 115.213673,0.00741887067 134.920125,0.00741887067 C154.624918,0.00741887067 170.600432,14.9957662 170.600432,33.4844258 Z" id="Stroke-386" stroke="#8A8B8A" stroke-width="3" stroke-linecap="round" stroke-linejoin="round"></path>
                    <path d="M181.030469,74.0758134 C181.030469,74.0758134 216.90819,51.931419 239.127924,62.9978292 C261.345999,74.0625859 269.924335,102.337901 252.49062,153.39418 C237.555256,197.135684 204.970516,226.913967 218.178931,262.634679 C231.389006,298.355391 244.257341,299.542554 258.116058,303.041213 C258.116058,303.041213 234.031685,308.003158 236.211521,334.998717 C236.211521,334.998717 182.81548,302.050808 193.386194,238.848428 C203.955249,175.646048 248.170761,134.855918 243.34327,106.440062 C238.985255,80.7870877 219.37668,77.688559 208.918773,86.3740293 C198.460867,95.061153 170.10972,127.312968 170.993931,139.634332 L181.030469,74.0758134 Z" id="Fill-388" fill="#E88478"></path>
                    <path d="M181.030469,74.0758134 C181.030469,74.0758134 216.90819,51.931419 239.127924,62.9978292 C261.345999,74.0625859 269.924335,102.337901 252.49062,153.39418 C237.555256,197.135684 204.970516,226.913967 218.178931,262.634679 C231.389006,298.355391 244.257341,299.542554 258.116058,303.041213 C258.116058,303.041213 234.031685,308.003158 236.211521,334.998717 C236.211521,334.998717 182.81548,302.050808 193.386194,238.848428 C203.955249,175.646048 248.170761,134.855918 243.34327,106.440062 C238.985255,80.7870877 219.37668,77.688559 208.918773,86.3740293 C198.460867,95.061153 170.10972,127.312968 170.993931,139.634332 L181.030469,74.0758134 Z" id="Stroke-390" stroke="#8A8B8A" stroke-width="4" stroke-linecap="round" stroke-linejoin="round"></path>
                    <path d="M77.213349,77.9129295 C77.213349,77.9129295 13.8786466,70.6444491 3.06738731,117.91768 C-10.8062602,178.572124 33.1006906,197.781679 88.3381464,218.596715 C143.575602,239.410098 110.222776,304.204732 76.1632451,317.708299 C37.817034,332.911592 21.9974593,322.997623 21.9974593,322.997623 C21.9974593,322.997623 44.8475874,351.20184 41.6624382,366.990447 C41.6624382,366.990447 98.457631,354.211083 132.941849,305.011606 C154.181154,274.709185 152.338081,232.083748 116.594734,216.812664 C80.8530456,201.539926 22.4603013,175.850577 23.7476325,138.216846 C24.8342329,106.432952 66.5298275,100.596342 83.0245875,112.074457 L77.213349,77.9129295 Z" id="Fill-392" fill="#E88478"></path>
                    <path d="M77.213349,77.9129295 C77.213349,77.9129295 13.8786466,70.6444491 3.06738731,117.91768 C-10.8062602,178.572124 33.1006906,197.781679 88.3381464,218.596715 C143.575602,239.410098 110.222776,304.204732 76.1632451,317.708299 C37.817034,332.911592 21.9974593,322.997623 21.9974593,322.997623 C21.9974593,322.997623 44.8475874,351.20184 41.6624382,366.990447 C41.6624382,366.990447 98.457631,354.211083 132.941849,305.011606 C154.181154,274.709185 152.338081,232.083748 116.594734,216.812664 C80.8530456,201.539926 22.4603013,175.850577 23.7476325,138.216846 C24.8342329,106.432952 66.5298275,100.596342 83.0245875,112.074457 L77.213349,77.9129295 Z" id="Stroke-394" stroke="#8A8B8A" stroke-width="4" stroke-linecap="round" stroke-linejoin="round"></path>
                    <path d="M144.860611,181.711988 C144.860611,181.711988 95.7230477,179.75598 80.6400387,198.646423 C65.5553709,217.535213 58.4932978,251.377628 59.5915107,264.319028 C61.9189922,291.775895 61.509236,369.463979 61.509236,369.463979 L211.665799,367.511278 L209.736461,247.776456 C209.736461,247.776456 274.710188,278.173122 295.13164,264.319028 C323.202427,245.278123 311.868604,208.383475 295.549691,205.865301 C279.230778,203.345473 144.860611,181.711988 144.860611,181.711988" id="Fill-396" fill="#EC9BA2"></path>
                    <path d="M144.860611,181.711988 C144.860611,181.711988 95.7230477,179.75598 80.6400387,198.646423 C65.5553709,217.535213 58.4932978,251.377628 59.5915107,264.319028 C61.9189922,291.775895 61.509236,369.463979 61.509236,369.463979 L211.665799,367.511278 L209.736461,247.776456 C209.736461,247.776456 274.710188,278.173122 295.13164,264.319028 C323.202427,245.278123 311.868604,208.383475 295.549691,205.865301 C279.230778,203.345473 144.860611,181.711988 144.860611,181.711988 Z" id="Stroke-398" stroke="#8A8B8A" stroke-width="4" stroke-linecap="round" stroke-linejoin="round"></path>
                    <path d="M185.855804,244.095259 C185.855804,244.095259 125.663119,234.480561 101.298386,265.555133 C76.9319941,296.629705 73.5842696,328.02835 96.0229826,348.692924 C119.276231,370.106502 165.139063,362.91408 185.855804,343.598705 C206.572546,324.28333 211.901035,277.511089 208.067244,268.929785 L330.517985,155.626808 L313.084269,139.909297 L185.855804,244.095259 Z" id="Fill-400" fill="#CEAD9B"></path>
                    <path d="M185.855804,244.095259 C185.855804,244.095259 125.663119,234.480561 101.298386,265.555133 C76.9319941,296.629705 73.5842696,328.02835 96.0229826,348.692924 C119.276231,370.106502 165.139063,362.91408 185.855804,343.598705 C206.572546,324.28333 211.901035,277.511089 208.067244,268.929785 L330.517985,155.626808 L313.084269,139.909297 L185.855804,244.095259 Z" id="Stroke-402" stroke="#8A8B8A" stroke-width="3" stroke-linecap="round" stroke-linejoin="round"></path>
                    <line x1="305.656899" y1="157.260562" x2="141.568626" y2="293.919898" id="Stroke-404" stroke="#8A8B8A" stroke-width="3" stroke-linecap="round" stroke-linejoin="round"></line>
                    <line x1="312.231081" y1="161.533027" x2="150.402273" y2="302.258148" id="Stroke-406" stroke="#8A8B8A" stroke-width="3" stroke-linecap="round" stroke-linejoin="round"></line>
                    <path d="M171.092306,308.442143 C167.414454,319.207629 157.306582,325.51712 148.514242,322.532678 C139.723562,319.549889 135.577891,308.404115 139.255743,297.638629 C142.931937,286.873143 153.041468,280.563652 161.832148,283.548094 C170.624487,286.530883 174.770158,297.676658 171.092306,308.442143" id="Fill-408" fill="#F7D9BA"></path>
                    <path d="M171.092306,308.442143 C167.414454,319.207629 157.306582,325.51712 148.514242,322.532678 C139.723562,319.549889 135.577891,308.404115 139.255743,297.638629 C142.931937,286.873143 153.041468,280.563652 161.832148,283.548094 C170.624487,286.530883 174.770158,297.676658 171.092306,308.442143 Z" id="Stroke-410" stroke="#8A8B8A" stroke-width="3" stroke-linecap="round" stroke-linejoin="round"></path>
                    <g id="Group-415" transform="translate(51.426889, 174.252702)">
                        <path d="M49.2824101,79.0442282 C51.7110864,80.6761641 101.119055,98.0189964 108.051732,100.555359 C114.984408,103.091721 89.0768688,138.708267 81.5619072,146.406639 C74.0469457,154.105012 4.22416053,97.8222382 1.34591367,85.1553072 C1.34591367,85.1553072 -6.1856372,72.5379793 27.7660633,26.2832616 C34.4913732,17.1232567 86.464051,0.319442769 86.464051,0.319442769" id="Fill-412" fill="#EC9BA2"></path>
                        <path d="M49.2824101,79.0442282 C51.7110864,80.6761641 101.119055,98.0189964 108.051732,100.555359 C114.984408,103.091721 89.0768688,138.708267 81.5619072,146.406639 C74.0469457,154.105012 4.22416053,97.8222382 1.34591367,85.1553072 C1.34591367,85.1553072 -6.1856372,72.5379793 27.7660633,26.2832616 C34.4913732,17.1232567 86.464051,0.319442769 86.464051,0.319442769" id="Stroke-414" stroke="#8A8B8A" stroke-width="4" stroke-linecap="round" stroke-linejoin="round"></path>
                    </g>
                    <path d="M122.658959,187.515694 C122.658959,187.515694 148.526684,230.309782 148.992844,237.419533 L175.328388,187.515694 L122.658959,187.515694 Z" id="Fill-416" fill="#F7D9BA"></path>
                    <path d="M122.658959,187.515694 C122.658959,187.515694 148.526684,230.309782 148.992844,237.419533 L175.328388,187.515694 L122.658959,187.515694 Z" id="Stroke-418" stroke="#8A8B8A" stroke-width="4" stroke-linecap="round" stroke-linejoin="round"></path>
                    <path d="M187.068318,75.9136014 C193.473454,84.7660681 207.109874,116.713652 189.692748,161.943243 C165.618328,224.461103 104.639309,185.803898 92.0413801,154.992221 C84.9378336,137.619627 84.393704,118.719263 84.5745276,106.440888 C84.7669637,93.4184698 85.9696893,72.5885527 108.091546,59.9216218 C123.514636,51.0906496 163.173062,42.8912878 187.068318,75.9136014" id="Fill-420" fill="#F7D9BA"></path>
                    <path d="M187.068318,75.9136014 C193.473454,84.7660681 207.109874,116.713652 189.692748,161.943243 C165.618328,224.461103 104.639309,185.803898 92.0413801,154.992221 C84.9378336,137.619627 84.393704,118.719263 84.5745276,106.440888 C84.7669637,93.4184698 85.9696893,72.5885527 108.091546,59.9216218 C123.514636,51.0906496 163.173062,42.8912878 187.068318,75.9136014 Z" id="Stroke-422" stroke="#8A8B8A" stroke-width="4" stroke-linecap="round" stroke-linejoin="round"></path>
                    <path d="M297.00192,216.827545 C297.00192,228.19984 289.473687,237.419368 280.185327,237.419368 C270.898626,237.419368 263.370393,228.19984 263.370393,216.827545 C263.370393,205.45525 270.898626,196.235721 280.185327,196.235721 C289.473687,196.235721 297.00192,205.45525 297.00192,216.827545" id="Fill-424" fill="#F7D9BA"></path>
                    <path d="M297.00192,216.827545 C297.00192,228.19984 289.473687,237.419368 280.185327,237.419368 C270.898626,237.419368 263.370393,228.19984 263.370393,216.827545 C263.370393,205.45525 270.898626,196.235721 280.185327,196.235721 C289.473687,196.235721 297.00192,205.45525 297.00192,216.827545 Z" id="Stroke-426" stroke="#8A8B8A" stroke-width="3" stroke-linecap="round" stroke-linejoin="round"></path>
                    <path d="M130.357233,122.050429 C130.357233,122.050429 124.658802,114.958866 117.186972,115.919509 C110.921186,116.726383 108.173995,123.454192 108.173995,125.2895" id="Stroke-428" stroke="#8A8B8A" stroke-width="3" stroke-linecap="round" stroke-linejoin="round"></path>
                    <path d="M156.622272,121.5253 C156.622272,121.5253 160.054602,113.109339 167.491594,111.905641 C173.727519,110.897049 178.284605,116.566662 178.810486,118.325912" id="Stroke-430" stroke="#8A8B8A" stroke-width="3" stroke-linecap="round" stroke-linejoin="round"></path>
                    <path d="M141.104623,149.746878 C141.104623,149.746878 150.215477,157.8305 155.837597,148.268711" id="Stroke-432" stroke="#8A8B8A" stroke-width="3" stroke-linecap="round" stroke-linejoin="round"></path>
                    <path d="M134.919627,170.552986 C134.919627,170.552986 150.925002,177.94382 162.023257,167.834746" id="Stroke-434" stroke="#8A8B8A" stroke-width="3" stroke-linecap="round" stroke-linejoin="round"></path>
                    <path d="M151.765749,77.9129295 C151.765749,77.9129295 101.199845,49.0010441 88.3381464,141.970133 C75.4747884,234.939222 95.3355212,321.378914 95.3355212,321.378914 C95.3355212,321.378914 39.5854554,151.321936 59.7265477,87.3077215 C72.1552656,47.8056139 119.403305,25.32888 138.358261,40.2924258 C138.358261,40.2924258 256.85245,-23.4803878 221.278314,302.256991 C221.278314,302.256991 200.827001,39.6128659 151.765749,77.9129295" id="Fill-436" fill="#000307"></path>
                    <path d="M151.765749,77.9129295 C151.765749,77.9129295 101.199845,49.0010441 88.3381464,141.970133 C75.4747884,234.939222 95.3355212,321.378914 95.3355212,321.378914 C95.3355212,321.378914 39.5854554,151.321936 59.7265477,87.3077215 C72.1552656,47.8056139 119.403305,25.32888 138.358261,40.2924258 C138.358261,40.2924258 256.85245,-23.4803878 221.278314,302.256991 C221.278314,302.256991 200.827001,39.6128659 151.765749,77.9129295 Z" id="Stroke-438" stroke="#8A8B8A" stroke-width="3" stroke-linecap="round" stroke-linejoin="round"></path>
                    <path d="M123.189983,48.5299818 C123.189983,48.5299818 110.373075,33.8012231 112.186288,27.4603172 C115.218815,16.8568675 154.470803,16.4749251 158.414085,26.8535082 C160.632076,32.6901178 151.0899,48.5299818 151.0899,48.5299818 L123.189983,48.5299818 Z" id="Fill-440" fill="#FCD894"></path>
                    <path d="M123.189983,48.5299818 C123.189983,48.5299818 110.373075,33.8012231 112.186288,27.4603172 C115.218815,16.8568675 154.470803,16.4749251 158.414085,26.8535082 C160.632076,32.6901178 151.0899,48.5299818 151.0899,48.5299818 L123.189983,48.5299818 Z" id="Stroke-442" stroke="#8A8B8A" stroke-width="3" stroke-linecap="round" stroke-linejoin="round"></path>
                    <polygon id="Fill-444" fill="#CEAD9B" points="295.895412 148.618412 318.727292 171.478742 353.44376 142.690863 326.37165 118.020027"></polygon>
                    <polygon id="Stroke-446" stroke="#8A8B8A" stroke-width="3" stroke-linecap="round" stroke-linejoin="round" points="295.895412 148.618412 318.727292 171.478742 353.44376 142.690863 326.37165 118.020027"></polygon>
                </g>
                <polygon id="Fill-449" fill="#C7AE99" points="273 790 1807 790 1784.81102 986.079556 1644.38502 1170.30506 1336.77097 1247.51841 782.526151 1257 476.268306 1209.58876 317.718663 1023.5"></polygon>
                <g id="Group-470" transform="translate(229.000000, 755.000000)">
                    <path d="M74.5358957,90.3973143 C96.6344263,189.370258 139.167481,387.882951 273.59635,431.601386 C458.067804,491.596906 1208.38901,490.048517 1337.49339,428.459991 C1496.45063,352.633559 1548.5542,187.167481 1552.06913,71.3919577 C1552.49753,57.2548543 1553.17405,43.5193075 1553.83072,32.1336099 C1554.71731,16.7306946 1568.74888,5.48711177 1583.99125,7.97246577 L1598.92099,10.4065924 C1611.975,12.5350073 1621.35033,24.1024793 1620.71351,37.300965 C1620.20406,47.8224071 1624.39219,201.028617 1526.88242,356.384725 C1463.79079,456.904405 1334.11244,511.661512 1120.46464,527.799788 C889.655746,545.233621 706.509211,539.271416 622.726668,535.865621 C538.942471,532.459827 291.811097,531.631927 184.706003,455.357668 C58.4251406,365.427183 29.8773457,186.164416 17.5924814,124.861771 C13.8658355,106.266233 4.62778959,50.8762197 0.841596735,27.6470833 C-0.843912449,17.3140257 5.77406816,7.45358203 15.9797518,5.07398777 L34.1763039,0.832030511 C45.222261,-1.74255827 56.3128784,4.93352561 59.1876722,15.8961841 C63.7000069,33.1003201 72.9843671,83.4502211 74.5358957,90.3973143" id="Fill-450" fill="#C7AE99"></path>
                    <path d="M74.5358957,90.3973143 C96.6344263,189.370258 139.167481,387.882951 273.59635,431.601386 C458.067804,491.596906 1208.38901,490.048517 1337.49339,428.459991 C1496.45063,352.633559 1548.5542,187.167481 1552.06913,71.3919577 C1552.49753,57.2548543 1553.17405,43.5193075 1553.83072,32.1336099 C1554.71731,16.7306946 1568.74888,5.48711177 1583.99125,7.97246577 L1598.92099,10.4065924 C1611.975,12.5350073 1621.35033,24.1024793 1620.71351,37.300965 C1620.20406,47.8224071 1624.39219,201.028617 1526.88242,356.384725 C1463.79079,456.904405 1334.11244,511.661512 1120.46464,527.799788 C889.655746,545.233621 706.509211,539.271416 622.726668,535.865621 C538.942471,532.459827 291.811097,531.631927 184.706003,455.357668 C58.4251406,365.427183 29.8773457,186.164416 17.5924814,124.861771 C13.8658355,106.266233 4.62778959,50.8762197 0.841596735,27.6470833 C-0.843912449,17.3140257 5.77406816,7.45358203 15.9797518,5.07398777 L34.1763039,0.832030511 C45.222261,-1.74255827 56.3128784,4.93352561 59.1876722,15.8961841 C63.7000069,33.1003201 72.9843671,83.4502211 74.5358957,90.3973143 Z" id="Stroke-452" stroke="#8A8B8A" stroke-width="7" stroke-linecap="round" stroke-linejoin="round"></path>
                    <g id="Group-457" transform="translate(99.244898, 192.332687)">
                        <line x1="0.931413367" y1="1.22631729" x2="1430.85521" y2="1.22631729" id="Fill-454" fill="#C7AE99"></line>
                        <line x1="0.931413367" y1="1.22631729" x2="1430.85521" y2="1.22631729" id="Stroke-456" stroke="#8A8B8A" stroke-width="7" stroke-linecap="round" stroke-linejoin="round"></line>
                    </g>
                    <g id="Group-461" transform="translate(162.100000, 338.761682)">
                        <line x1="0.972765408" y1="0.962742945" x2="1289.89768" y2="0.962742945" id="Fill-458" fill="#B4B5B4"></line>
                        <line x1="0.972765408" y1="0.962742945" x2="1289.89768" y2="0.962742945" id="Stroke-460" stroke="#8A8B8A" stroke-width="7" stroke-linecap="round" stroke-linejoin="round"></line>
                    </g>
                    <g id="Group-465" transform="translate(72.779592, 70.047983)">
                        <line x1="0.147544082" y1="1.34331401" x2="1475.77362" y2="1.34331401" id="Fill-462" fill="#C7AE99"></line>
                        <line x1="0.147544082" y1="1.34331401" x2="1475.77362" y2="1.34331401" id="Stroke-464" stroke="#8A8B8A" stroke-width="7" stroke-linecap="round" stroke-linejoin="round"></line>
                    </g>
                    <g id="Group-469" transform="translate(64.509184, 32.040574)">
                        <line x1="0.11165051" y1="1.76800548" x2="1487.06653" y2="1.76800548" id="Fill-466" fill="#C7AE99"></line>
                        <line x1="0.11165051" y1="1.76800548" x2="1487.06653" y2="1.76800548" id="Stroke-468" stroke="#8A8B8A" stroke-width="7" stroke-linecap="round" stroke-linejoin="round"></line>
                    </g>
                </g>
            </g>
        </g>
    </g>
</svg>