<?xml version="1.0" encoding="UTF-8"?>
<svg width="184px" height="224px" viewBox="0 0 184 224" version="1.1" xmlns="http://www.w3.org/2000/svg" xmlns:xlink="http://www.w3.org/1999/xlink">
    <title>Ebisu44mm</title>
    <g id="Ebisu44mm" stroke="none" stroke-width="1" fill="none" fill-rule="evenodd">
        <g id="Ebisu" transform="translate(-70.000000, 11.000000)">
            <path d="M59.5627999,259.516358 L20,232.236532 L30.9076243,177.551872 L76.9512814,188.376473 L87.7691382,191.558005 L112.546712,184.964294 C112.546712,184.964294 181.591956,188.675787 187.951364,180.59255 C194.309011,172.509313 187.951364,180.59255 187.951364,180.59255 C187.951364,180.59255 227.864432,177.706811 222.504788,278.313274 C217.146904,378.921498 210.208409,392.381822 210.208409,392.381822 L59.5627999,396 L59.5627999,259.516358 Z" id="Fill-5" fill="#475B8C"></path>
            <path d="M59.5627999,259.516358 L20,232.236532 L30.9076243,177.551872 L76.9512814,188.376473 L87.7691382,191.558005 L112.546712,184.964294 C112.546712,184.964294 181.591956,188.675787 187.951364,180.59255 C194.309011,172.509313 187.951364,180.59255 187.951364,180.59255 C187.951364,180.59255 227.864432,177.706811 222.504788,278.313274 C217.146904,378.921498 210.208409,392.381822 210.208409,392.381822 L59.5627999,396 L59.5627999,259.516358 Z" id="Stroke-7" stroke="#8A8B8A" stroke-width="4" stroke-linecap="round" stroke-linejoin="round"></path>
            <path d="M93,341 C93,341 58.4765643,152.334755 20,0" id="Stroke-15" stroke="#8A8B8A" stroke-width="4" stroke-linecap="round" stroke-linejoin="round"></path>
            <path d="M74,196 C74,207.596883 67.2834218,217 58.9991052,217 C50.7147885,217 44,207.596883 44,196 C44,184.403117 50.7147885,175 58.9991052,175 C67.2834218,175 74,184.403117 74,196" id="Fill-17" fill="#F7D9BA"></path>
            <path d="M74,196 C74,207.596883 67.2834218,217 58.9991052,217 C50.7147885,217 44,207.596883 44,196 C44,184.403117 50.7147885,175 58.9991052,175 C67.2834218,175 74,184.403117 74,196 Z" id="Stroke-19" stroke="#8A8B8A" stroke-width="3" stroke-linecap="round" stroke-linejoin="round"></path>
            <path d="M105.089323,187.190114 L102,215 C102,215 165.166752,190.339595 213,200.449887 C213,200.449887 195.683533,169.764387 170.93007,166.183037 C153.804477,163.705936 105.089323,187.190114 105.089323,187.190114" id="Fill-33" fill="#F7D9BA"></path>
            <path d="M105.089323,187.190114 L102,215 C102,215 165.166752,190.339595 213,200.449887 C213,200.449887 195.683533,169.764387 170.93007,166.183037 C153.804477,163.705936 105.089323,187.190114 105.089323,187.190114 Z" id="Stroke-35" stroke="#8A8B8A" stroke-width="4" stroke-linecap="round" stroke-linejoin="round"></path>
            <path d="M117.874549,69.1746196 C117.874549,69.1746196 115.881308,84.2583123 117.086442,88.8928391 C117.086442,88.8928391 110.452908,97.4254186 103.246848,99.7312842 C96.2987775,101.956488 88.9336819,111.66918 95.6449662,114.993835 C104.220496,119.240836 102.95705,118.630615 102.95705,118.630615 L102.153039,125.970807 C102.153039,125.970807 93.6888336,128.466052 97.7742705,132.998875 C101.859707,137.531698 109.698374,138.120878 109.698374,138.120878 C109.698374,138.120878 126.946622,133.133895 125.236111,138.120878 C123.523832,143.10786 109.825603,153.474611 102.029345,152.909981 C94.2348543,152.345351 95.1325195,162.459596 98.6418957,167.581599 C102.153039,172.705355 113.094659,182.540792 149.941341,183.84891 C186.786257,185.157029 203.158045,177.729161 207.835446,170.918528 C212.512847,164.107895 232.687342,124.157678 235.864511,110.226041 C238.9763,96.5749663 187.454205,57 187.454205,57 L117.874549,69.1746196 Z" id="Fill-37" fill="#F7D9BA"></path>
            <path d="M117.874549,69.1746196 C117.874549,69.1746196 115.881308,84.2583123 117.086442,88.8928391 C117.086442,88.8928391 110.452908,97.4254186 103.246848,99.7312842 C96.2987775,101.956488 88.9336819,111.66918 95.6449662,114.993835 C104.220496,119.240836 102.95705,118.630615 102.95705,118.630615 L102.153039,125.970807 C102.153039,125.970807 93.6888336,128.466052 97.7742705,132.998875 C101.859707,137.531698 109.698374,138.120878 109.698374,138.120878 C109.698374,138.120878 126.946622,133.133895 125.236111,138.120878 C123.523832,143.10786 109.825603,153.474611 102.029345,152.909981 C94.2348543,152.345351 95.1325195,162.459596 98.6418957,167.581599 C102.153039,172.705355 113.094659,182.540792 149.941341,183.84891 C186.786257,185.157029 203.158045,177.729161 207.835446,170.918528 C212.512847,164.107895 232.687342,124.157678 235.864511,110.226041 C238.9763,96.5749663 187.454205,57 187.454205,57 L117.874549,69.1746196 Z" id="Stroke-39" stroke="#8A8B8A" stroke-width="4" stroke-linecap="round" stroke-linejoin="round"></path>
            <g id="Group-44" transform="translate(110.000000, 127.000000)">
                <polyline id="Fill-41" fill="#F7D9BA" points="0.394423801 0.0895968859 18.2769597 0.0895968859 25.6350885 5.901243"></polyline>
                <polyline id="Stroke-43" stroke="#8A8B8A" stroke-width="4" stroke-linecap="round" stroke-linejoin="round" points="0.394423801 0.0895968859 18.2769597 0.0895968859 25.6350885 5.901243"></polyline>
            </g>
            <path d="M128,83.976605 C128,83.976605 147.78738,81.2145508 151.070837,84.9805089 C154.356061,88.7482251 160,99 160,99" id="Stroke-45" stroke="#8A8B8A" stroke-width="4" stroke-linecap="round" stroke-linejoin="round"></path>
            <path d="M206.350682,31.5184355 C182.221973,23.9524648 198.808593,22.7527231 212.657428,9.719888 C225.427316,-2.29519856 173.743274,-3.95257373 159.797791,9.16860756 C150.505488,17.91135 148.790418,39.9130938 148.790418,39.9130938 C148.790418,39.9130938 119.027987,55.1828552 118,70.5056244 C118,70.5056244 217.403743,111 235.332897,111 C235.332897,111 251.009265,45.523079 206.350682,31.5184355" id="Fill-47" fill="#475B8C"></path>
            <path d="M206.350682,31.5184355 C182.221973,23.9524648 198.808593,22.7527231 212.657428,9.719888 C225.427316,-2.29519856 173.743274,-3.95257373 159.797791,9.16860756 C150.505488,17.91135 148.790418,39.9130938 148.790418,39.9130938 C148.790418,39.9130938 119.027987,55.1828552 118,70.5056244 C118,70.5056244 217.403743,111 235.332897,111 C235.332897,111 251.009265,45.523079 206.350682,31.5184355 Z" id="Stroke-49" stroke="#8A8B8A" stroke-width="4" stroke-linecap="round" stroke-linejoin="round"></path>
            <path d="M124,96.3462513 C124,96.3462513 130.65462,93.9942989 135.006914,95.5078072 C139.360937,97.0231109 145.348366,103.513422 146,105" id="Stroke-51" stroke="#8A8B8A" stroke-width="3" stroke-linecap="round" stroke-linejoin="round"></path>
        </g>
    </g>
</svg>