<?xml version="1.0" encoding="UTF-8"?>
<svg width="184px" height="224px" viewBox="0 0 184 224" version="1.1" xmlns="http://www.w3.org/2000/svg" xmlns:xlink="http://www.w3.org/1999/xlink">
    <title>Jurōjin44mm</title>
    <g id="Jurōjin44mm" stroke="none" stroke-width="1" fill="none" fill-rule="evenodd">
        <g id="Jurōjin" transform="translate(-19.000000, 12.000000)">
            <path d="M159.423592,176.443548 C159.423592,176.443548 195.915378,186.953915 208.603714,199.295697 C221.290396,211.635824 253.84334,282.629192 243.742299,298.461745 C231.58995,317.510441 211.563223,312.218034 200.266138,299.59666 L200.266138,368.081966 L50.0177111,368.081966 L52.8878889,296.380517 C52.8878889,296.380517 47.509821,327.699856 19.6930843,318.896824 C-16.7821596,307.35246 6.15775638,235.416087 20.1529745,213.69389 C29.6220795,198.994597 56.9574204,179.360245 89.081905,176.443548 L159.423592,176.443548 Z" id="Fill-313" fill="#BFBCD3"></path>
            <path d="M159.423592,176.443548 C159.423592,176.443548 195.915378,186.953915 208.603714,199.295697 C221.290396,211.635824 253.84334,282.629192 243.742299,298.461745 C231.58995,317.510441 211.563223,312.218034 200.266138,299.59666 L200.266138,368.081966 L50.0177111,368.081966 L52.8878889,296.380517 C52.8878889,296.380517 47.509821,327.699856 19.6930843,318.896824 C-16.7821596,307.35246 6.15775638,235.416087 20.1529745,213.69389 C29.6220795,198.994597 56.9574204,179.360245 89.081905,176.443548 L159.423592,176.443548 Z" id="Stroke-315" stroke="#8A8B8A" stroke-width="4" stroke-linecap="round" stroke-linejoin="round"></path>
            <path d="M95.5926591,190.834462 C95.5926591,190.834462 97.9218869,223.924003 101.700265,229.878168 L117.344801,221.123113 L133.0522,229.878168 C133.0522,229.878168 140.385628,209.87985 138.741273,190.834462 L95.5926591,190.834462 Z" id="Fill-317" fill="#FFFFFE"></path>
            <path d="M95.5926591,190.834462 C95.5926591,190.834462 97.9218869,223.924003 101.700265,229.878168 L117.344801,221.123113 L133.0522,229.878168 C133.0522,229.878168 140.385628,209.87985 138.741273,190.834462 L95.5926591,190.834462 Z" id="Stroke-319" stroke="#8A8B8A" stroke-width="3" stroke-linecap="round" stroke-linejoin="round"></path>
            <path d="M65.5325519,146.073832 C65.5408233,131.020498 52.8872271,121.704604 52.8872271,96.0681099 C52.8872271,61.7162666 81.8090236,35.1566205 119.402562,35.1566205 C156.967977,35.1566205 185.42492,61.7162666 185.42492,96.0681099 C185.42492,127.126054 171.616636,121.034574 171.616636,144.64609 C171.616636,166.9192 149.74704,197.681008 119.445573,197.681008 C95.9680155,197.681008 65.5143548,181.830256 65.5325519,146.073832" id="Fill-321" fill="#F7D9BA"></path>
            <path d="M65.5325519,146.073832 C65.5408233,131.020498 52.8872271,121.704604 52.8872271,96.0681099 C52.8872271,61.7162666 81.8090236,35.1566205 119.402562,35.1566205 C156.967977,35.1566205 185.42492,61.7162666 185.42492,96.0681099 C185.42492,127.126054 171.616636,121.034574 171.616636,144.64609 C171.616636,166.9192 149.74704,197.681008 119.445573,197.681008 C95.9680155,197.681008 65.5143548,181.830256 65.5325519,146.073832 Z" id="Stroke-323" stroke="#8A8B8A" stroke-width="4" stroke-linecap="round" stroke-linejoin="round"></path>
            <path d="M200.265668,52.638936 C200.265668,35.5837852 117.439095,0.250886105 117.439095,0.250886105 C117.439095,0.250886105 34.6125493,35.5837852 34.6125493,52.638936 C34.6125493,61.8373683 35.770546,63.8358766 52.8873926,63.7299954 L53.4928595,87.6376474 L184.831199,87.6376474 L185.425086,63.1807365 C200.411218,62.968974 200.265668,61.1656842 200.265668,52.638936" id="Fill-325" fill="#BFBCD3"></path>
            <path d="M200.265668,52.638936 C200.265668,35.5837852 117.439095,0.250886105 117.439095,0.250886105 C117.439095,0.250886105 34.6125493,35.5837852 34.6125493,52.638936 C34.6125493,61.8373683 35.770546,63.8358766 52.8873926,63.7299954 L53.4928595,87.6376474 L184.831199,87.6376474 L185.425086,63.1807365 C200.411218,62.968974 200.265668,61.1656842 200.265668,52.638936 Z" id="Stroke-327" stroke="#8A8B8A" stroke-width="4" stroke-linecap="round" stroke-linejoin="round"></path>
            <path d="M107.846416,156.309735 C95.0240827,158.050158 73.0188355,170.608665 75.3910746,200.950256 C75.3910746,200.950256 85.3614268,183.24162 91.4591069,178.579537 C98.286325,173.363231 120.634008,154.574275 107.846416,156.309735" id="Fill-329" fill="#FFFFFE"></path>
            <path d="M107.846416,156.309735 C95.0240827,158.050158 73.0188355,170.608665 75.3910746,200.950256 C75.3910746,200.950256 85.3614268,183.24162 91.4591069,178.579537 C98.286325,173.363231 120.634008,154.574275 107.846416,156.309735 Z" id="Stroke-331" stroke="#8A8B8A" stroke-width="3" stroke-linecap="round" stroke-linejoin="round"></path>
            <path d="M127.031444,156.309735 C139.853777,158.050158 161.859024,170.608665 159.486785,200.950256 C159.486785,200.950256 149.516433,183.24162 143.418753,178.579537 C136.591535,173.363231 114.243851,154.574275 127.031444,156.309735" id="Fill-333" fill="#FFFFFE"></path>
            <path d="M127.031444,156.309735 C139.853777,158.050158 161.859024,170.608665 159.486785,200.950256 C159.486785,200.950256 149.516433,183.24162 143.418753,178.579537 C136.591535,173.363231 114.243851,154.574275 127.031444,156.309735 Z" id="Stroke-335" stroke="#8A8B8A" stroke-width="3" stroke-linecap="round" stroke-linejoin="round"></path>
            <g id="Group-340" transform="translate(105.907916, 151.383610)">
                <path d="M1.29240711e-05,0.207626485 C1.29240711e-05,0.207626485 0.886707593,7.75331888 11.5303522,7.75331888 C22.1756511,7.75331888 23.0623457,0.207626485 23.0623457,0.207626485" id="Fill-337" fill="#F7D9BA"></path>
                <path d="M1.29240711e-05,0.207626485 C1.29240711e-05,0.207626485 0.886707593,7.75331888 11.5303522,7.75331888 C22.1756511,7.75331888 23.0623457,0.207626485 23.0623457,0.207626485" id="Stroke-339" stroke="#8A8B8A" stroke-width="3" stroke-linecap="round" stroke-linejoin="round"></path>
            </g>
            <g id="Group-344" transform="translate(131.376414, 119.950119)">
                <path d="M0.0208439418,3.25932221 C0.0208439418,3.25932221 15.928411,-6.70840344 23.6158553,10.4096144" id="Fill-341" fill="#F7D9BA"></path>
                <path d="M0.0208439418,3.25932221 C0.0208439418,3.25932221 15.928411,-6.70840344 23.6158553,10.4096144" id="Stroke-343" stroke="#8A8B8A" stroke-width="3" stroke-linecap="round" stroke-linejoin="round"></path>
            </g>
            <g id="Group-348" transform="translate(79.449779, 119.950119)">
                <path d="M23.8956689,3.25932221 C23.8956689,3.25932221 7.98975618,-6.70840344 0.300657632,10.4096144" id="Fill-345" fill="#F7D9BA"></path>
                <path d="M23.8956689,3.25932221 C23.8956689,3.25932221 7.98975618,-6.70840344 0.300657632,10.4096144" id="Stroke-347" stroke="#8A8B8A" stroke-width="3" stroke-linecap="round" stroke-linejoin="round"></path>
            </g>
            <g id="Group-352" transform="translate(71.822294, 100.097387)">
                <path d="M0.722259128,10.0342323 C0.722259128,10.0342323 15.2997842,-3.43915487 29.8773092,1.63983563" id="Fill-349" fill="#F7D9BA"></path>
                <path d="M0.722259128,10.0342323 C0.722259128,10.0342323 15.2997842,-3.43915487 29.8773092,1.63983563" id="Stroke-351" stroke="#8A8B8A" stroke-width="4" stroke-linecap="round" stroke-linejoin="round"></path>
            </g>
            <g id="Group-356" transform="translate(131.376414, 100.097387)">
                <path d="M29.1755632,10.0342323 C29.1755632,10.0342323 14.5980381,-3.43915487 0.0205130856,1.63983563" id="Fill-353" fill="#F7D9BA"></path>
                <path d="M29.1755632,10.0342323 C29.1755632,10.0342323 14.5980381,-3.43915487 0.0205130856,1.63983563" id="Stroke-355" stroke="#8A8B8A" stroke-width="4" stroke-linecap="round" stroke-linejoin="round"></path>
            </g>
            <g id="Group-360" transform="translate(104.907916, 176.199525)">
                <path d="M0.091812601,0.244023159 C0.091812601,0.244023159 11.4087496,17.4182904 24.7803037,0.523615796" id="Fill-357" fill="#F7D9BA"></path>
                <path d="M0.091812601,0.244023159 C0.091812601,0.244023159 11.4087496,17.4182904 24.7803037,0.523615796" id="Stroke-359" stroke="#8A8B8A" stroke-width="3" stroke-linecap="round" stroke-linejoin="round"></path>
            </g>
            <polygon id="Fill-373" fill="#C7AE99" points="30.5413635 384.479495 41.4447302 384.479495 41.4447302 176.919186 30.5413635 176.919186"></polygon>
            <polygon id="Stroke-375" stroke="#8A8B8A" stroke-width="3" stroke-linecap="round" stroke-linejoin="round" points="30.5413635 384.479495 41.4447302 384.479495 41.4447302 176.919186 30.5413635 176.919186"></polygon>
            <polygon id="Fill-376" fill="#C7AE99" points="13.654462 193.701362 60.7485363 193.701362 60.7485363 174.788327 13.654462 174.788327"></polygon>
            <polygon id="Stroke-377" stroke="#8A8B8A" stroke-width="3" stroke-linecap="round" stroke-linejoin="round" points="13.654462 193.701362 60.7485363 193.701362 60.7485363 174.788327 13.654462 174.788327"></polygon>
        </g>
    </g>
</svg>