<?xml version="1.0" encoding="UTF-8"?>
<svg width="184px" height="224px" viewBox="0 0 184 224" version="1.1" xmlns="http://www.w3.org/2000/svg" xmlns:xlink="http://www.w3.org/1999/xlink">
    <title>Daikoku44mm</title>
    <g id="Daikoku44mm" stroke="none" stroke-width="1" fill="none" fill-rule="evenodd">
        <g id="Daikoku" transform="translate(-54.000000, 17.000000)">
            <path d="M121.642616,162.323246 C121.642616,162.323246 79.0448775,161.728316 57.1455044,179.75625 C35.8565609,197.279595 -8.10761357,253.472752 27.2906934,279.383875 C39.0294721,287.976799 59.4217952,268.307705 59.4217952,268.307705 C26.2898533,351.371534 46.4952426,386.674654 46.8939244,396.443853 L241.999837,396.443853 C241.999837,396.443853 256.939163,321.690046 228.133653,273.780442 C228.133653,273.780442 243.230622,281.054813 254.018189,263.93845 C260.752768,253.256026 254.855256,202.254359 246.335708,192.908685 C235.910428,181.475166 219.01691,169.269045 195.096005,162.323246 L121.642616,162.323246 Z" id="Fill-56" fill="#CE5F52"></path>
            <path d="M121.642616,162.323246 C121.642616,162.323246 79.0448775,161.728316 57.1455044,179.75625 C35.8565609,197.279595 -8.10761357,253.472752 27.2906934,279.383875 C39.0294721,287.976799 59.4217952,268.307705 59.4217952,268.307705 C26.2898533,351.371534 46.4952426,386.674654 46.8939244,396.443853 L241.999837,396.443853 C241.999837,396.443853 256.939163,321.690046 228.133653,273.780442 C228.133653,273.780442 243.230622,281.054813 254.018189,263.93845 C260.752768,253.256026 254.855256,202.254359 246.335708,192.908685 C235.910428,181.475166 219.01691,169.269045 195.096005,162.323246 L121.642616,162.323246 Z" id="Stroke-58" stroke="#8A8B8A" stroke-width="4" stroke-linecap="round" stroke-linejoin="round"></path>
            <path d="M94.8096801,77.9421783 C94.8096801,77.9421783 62.1045428,64.0535381 73.2378546,41.7374134 C84.3695121,19.4212887 103.54263,20.6339597 110.525351,21.9045346 C110.525351,21.9045346 123.94157,0.854021496 149.333131,0.638950238 C174.373984,0.425533373 186.253376,13.2752139 189.464336,20.1839645 C189.464336,20.1839645 207.360349,15.9569871 218.442378,23.9609467 C229.522753,31.9665607 237.311108,67.2762982 207.60022,70.9126569 C207.60022,70.9126569 183.993628,68.5948505 148.56389,68.5948505 C113.135806,68.5948505 94.8096801,77.9421783 94.8096801,77.9421783" id="Fill-67" fill="#CE5F52"></path>
            <path d="M94.8096801,77.9421783 C94.8096801,77.9421783 62.1045428,64.0535381 73.2378546,41.7374134 C84.3695121,19.4212887 103.54263,20.6339597 110.525351,21.9045346 C110.525351,21.9045346 123.94157,0.854021496 149.333131,0.638950238 C174.373984,0.425533373 186.253376,13.2752139 189.464336,20.1839645 C189.464336,20.1839645 207.360349,15.9569871 218.442378,23.9609467 C229.522753,31.9665607 237.311108,67.2762982 207.60022,70.9126569 C207.60022,70.9126569 183.993628,68.5948505 148.56389,68.5948505 C113.135806,68.5948505 94.8096801,77.9421783 94.8096801,77.9421783 Z" id="Stroke-68" stroke="#8A8B8A" stroke-width="4" stroke-linecap="round" stroke-linejoin="round"></path>
            <polygon id="Fill-71" fill="#C7AE99" points="14.0195541 216.238457 63.7836381 216.238457 63.7836381 172.02477 14.0195541 172.02477"></polygon>
            <polygon id="Stroke-72" stroke="#8A8B8A" stroke-width="3" stroke-linecap="round" stroke-linejoin="round" points="14.0195541 216.238457 63.7836381 216.238457 63.7836381 172.02477 14.0195541 172.02477"></polygon>
            <path d="M86.9625977,166.371704 C86.9625977,166.371704 141.41326,199.663081 149.492769,216.238457 C149.492769,216.238457 176.838036,184.275559 210.73591,173.713906 L152.801331,152.625342 L86.9625977,166.371704 Z" id="Fill-73" fill="#633E3E"></path>
            <path d="M86.9625977,166.371704 C86.9625977,166.371704 141.41326,199.663081 149.492769,216.238457 C149.492769,216.238457 176.838036,184.275559 210.73591,173.713906 L152.801331,152.625342 L86.9625977,166.371704 Z" id="Stroke-74" stroke="#8A8B8A" stroke-width="4" stroke-linecap="round" stroke-linejoin="round"></path>
            <g id="Group-79" transform="translate(52.198708, 171.393763)">
                <path d="M0.586938934,44.8450254 L11.5845997,44.8450254 C18.9147192,44.8450254 24.8568969,34.9467843 24.8568969,22.7390088 C24.8568969,10.5295788 18.9147192,0.631337739 11.5845997,0.631337739 L0.586938934,0.631337739" id="Fill-77" fill="#C7AE99"></path>
                <path d="M0.586938934,44.8450254 L11.5845997,44.8450254 C18.9147192,44.8450254 24.8568969,34.9467843 24.8568969,22.7390088 C24.8568969,10.5295788 18.9147192,0.631337739 11.5845997,0.631337739 L0.586938934,0.631337739" id="Stroke-78" stroke="#8A8B8A" stroke-width="3" stroke-linecap="round" stroke-linejoin="round"></path>
            </g>
            <path d="M31.8103548,172.025597 L24.9401254,156.469327 C24.9401254,156.469327 41.8154468,147.821808 55.3722805,156.469327 L48.9222384,172.025597 L31.8103548,172.025597 Z" id="Fill-80" fill="#C7AE99"></path>
            <path d="M31.8103548,172.025597 L24.9401254,156.469327 C24.9401254,156.469327 41.8154468,147.821808 55.3722805,156.469327 L48.9222384,172.025597 L31.8103548,172.025597 Z" id="Stroke-81" stroke="#8A8B8A" stroke-width="3" stroke-linecap="round" stroke-linejoin="round"></path>
            <path d="M222.355745,192.90852 C222.355745,192.90852 204.044508,165.290061 221.040592,146.003133 C234.099487,131.183068 271.420068,132.260079 288.012508,140.34345 C306.858078,149.523684 318.409923,194.132771 314.356934,220.197754 C307.334511,265.364372 251.715926,267.154427 251.715926,267.154427 C257.325594,258.528415 260.592799,235.853287 249.825083,204.998833 C239.762091,176.166049 234.956405,194.562914 234.956405,194.562914 L222.355745,192.90852 Z" id="Fill-82" fill="#FFFFFE"></path>
            <path d="M222.355745,192.90852 C222.355745,192.90852 204.044508,165.290061 221.040592,146.003133 C234.099487,131.183068 271.420068,132.260079 288.012508,140.34345 C306.858078,149.523684 318.409923,194.132771 314.356934,220.197754 C307.334511,265.364372 251.715926,267.154427 251.715926,267.154427 C257.325594,258.528415 260.592799,235.853287 249.825083,204.998833 C239.762091,176.166049 234.956405,194.562914 234.956405,194.562914 L222.355745,192.90852 Z" id="Stroke-83" stroke="#8A8B8A" stroke-width="4" stroke-linecap="round" stroke-linejoin="round"></path>
            <path d="M94.8096801,77.9421783 L95.3870242,105.676444 C95.3870242,105.676444 81.9873473,148.118276 107.145654,157.690601 C131.150927,166.822858 167.325092,168.187733 189.664504,159.718888 C211.605234,151.400594 203.957493,114.305765 203.949221,107.216685 C203.94095,100.127606 207.60022,70.9126569 207.60022,70.9126569 C207.60022,70.9126569 137.447121,50.6943042 94.8096801,77.9421783" id="Fill-84" fill="#F7D9BA"></path>
            <path d="M94.8096801,77.9421783 L95.3870242,105.676444 C95.3870242,105.676444 81.9873473,148.118276 107.145654,157.690601 C131.150927,166.822858 167.325092,168.187733 189.664504,159.718888 C211.605234,151.400594 203.957493,114.305765 203.949221,107.216685 C203.94095,100.127606 207.60022,70.9126569 207.60022,70.9126569 C207.60022,70.9126569 137.447121,50.6943042 94.8096801,77.9421783 Z" id="Stroke-85" stroke="#8A8B8A" stroke-width="4" stroke-linecap="round" stroke-linejoin="round"></path>
            <path d="M159.2967,85.7036037 C159.2967,85.7036037 176.532655,80.3251678 184.802406,85.3677616" id="Stroke-86" stroke="#8A8B8A" stroke-width="4" stroke-linecap="round" stroke-linejoin="round"></path>
            <path d="M158.765345,101.969774 C158.765345,101.969774 165.157488,97.2564045 170.343659,97.3374698 C175.52983,97.4185352 184.115549,102.100471 185.304977,103.420678" id="Stroke-87" stroke="#8A8B8A" stroke-width="3" stroke-linecap="round" stroke-linejoin="round"></path>
            <path d="M137.573839,84.4570176 C137.573839,84.4570176 120.337884,79.0785817 112.068133,84.1211755" id="Stroke-88" stroke="#8A8B8A" stroke-width="4" stroke-linecap="round" stroke-linejoin="round"></path>
            <path d="M138.105194,100.723188 C138.105194,100.723188 131.713052,96.0098184 126.526881,96.0908837 C121.34071,96.171949 112.754991,100.853885 111.565563,102.174092" id="Stroke-89" stroke="#8A8B8A" stroke-width="3" stroke-linecap="round" stroke-linejoin="round"></path>
            <path d="M138.105194,119.699421 C138.105194,119.699421 138.204451,125.87693 145.263268,126.052295 C152.322086,126.229316 154.087204,122.523472 154.262558,119.699421" id="Stroke-90" stroke="#8A8B8A" stroke-width="3" stroke-linecap="round" stroke-linejoin="round"></path>
            <path d="M122.087783,137.577633 C122.087783,137.577633 120.751124,146.069639 143.249347,146.405481 C165.74757,146.742978 169.717844,142.972613 170.2803,137.577633" id="Stroke-91" stroke="#8A8B8A" stroke-width="3" stroke-linecap="round" stroke-linejoin="round"></path>
            <path d="M132.620425,128.043359 C132.620425,128.043359 116.522616,125.601473 112.529181,132.26041" id="Stroke-92" stroke="#8A8B8A" stroke-width="3" stroke-linecap="round" stroke-linejoin="round"></path>
            <path d="M164.250114,129.043359 C164.250114,129.043359 180.347924,126.601473 184.341358,133.26041" id="Stroke-93" stroke="#8A8B8A" stroke-width="3" stroke-linecap="round" stroke-linejoin="round"></path>
            <path d="M240.345391,209.945307 C240.345391,219.353847 234.136874,226.982259 226.479206,226.982259 C218.821539,226.982259 212.614677,219.353847 212.614677,209.945307 C212.614677,200.536766 218.821539,192.908354 226.479206,192.908354 C234.136874,192.908354 240.345391,200.536766 240.345391,209.945307" id="Fill-94" fill="#F7D9BA"></path>
            <path d="M240.345391,209.945307 C240.345391,219.353847 234.136874,226.982259 226.479206,226.982259 C218.821539,226.982259 212.614677,219.353847 212.614677,209.945307 C212.614677,200.536766 218.821539,192.908354 226.479206,192.908354 C234.136874,192.908354 240.345391,200.536766 240.345391,209.945307 Z" id="Stroke-95" stroke="#8A8B8A" stroke-width="3" stroke-linecap="round" stroke-linejoin="round"></path>
        </g>
    </g>
</svg>