<?xml version="1.0" encoding="UTF-8"?>
<svg width="184px" height="224px" viewBox="0 0 184 224" version="1.1" xmlns="http://www.w3.org/2000/svg" xmlns:xlink="http://www.w3.org/1999/xlink">
    <title>Bishamonten44mm</title>
    <g id="Bishamonten44mm" stroke="none" stroke-width="1" fill="none" fill-rule="evenodd">
        <g id="Bishamonten" transform="translate(-8.000000, 12.000000)">
            <path d="M139.280187,180.610941 C139.280187,180.610941 173.628565,187.669838 189.121812,205.473485 C205.673645,224.493613 242.160799,319.945127 214.233735,333.26683 C199.21411,340.429997 187.072775,335.310848 180.626534,319.236755 L180.626534,406.646257 L0.188285413,406.646257 L0.188285413,308.688959 C0.188285413,308.688959 7.42057241,230.923581 16.3313084,216.797512 C36.9247138,184.149493 64.4894988,178.609955 64.4894988,178.609955 L139.280187,180.610941 Z" id="Fill-238" fill="#93AB9B"></path>
            <path d="M139.280187,180.610941 C139.280187,180.610941 173.628565,187.669838 189.121812,205.473485 C205.673645,224.493613 242.160799,319.945127 214.233735,333.26683 C199.21411,340.429997 187.072775,335.310848 180.626534,319.236755 L180.626534,406.646257 L0.188285413,406.646257 L0.188285413,308.688959 C0.188285413,308.688959 7.42057241,230.923581 16.3313084,216.797512 C36.9247138,184.149493 64.4894988,178.609955 64.4894988,178.609955 L139.280187,180.610941 Z" id="Stroke-240" stroke="#8A8B8A" stroke-width="4" stroke-linecap="round" stroke-linejoin="round"></path>
            <path d="M59.9611765,176.954383 C59.9611765,176.954383 19.3377262,173.996763 10.8341387,189.880523 C3.09000791,204.347538 -5.51162754,232.01378 8.94629913,232.861178 C23.4058876,233.710232 65.9703561,227.824784 68.1157795,214.297852 C70.0518122,202.09167 70.2196571,177.052032 59.9611765,176.954383" id="Fill-242" fill="#83A38F"></path>
            <path d="M59.9611765,176.954383 C59.9611765,176.954383 19.3377262,173.996763 10.8341387,189.880523 C3.09000791,204.347538 -5.51162754,232.01378 8.94629913,232.861178 C23.4058876,233.710232 65.9703561,227.824784 68.1157795,214.297852 C70.0518122,202.09167 70.2196571,177.052032 59.9611765,176.954383 Z" id="Stroke-244" stroke="#8A8B8A" stroke-width="4" stroke-linecap="round" stroke-linejoin="round"></path>
            <path d="M145.181348,176.954383 C145.181348,176.954383 185.804798,173.996763 194.308386,189.880523 C202.052516,204.347538 210.654152,232.01378 196.196225,232.861178 C181.738299,233.710232 139.172168,227.824784 137.026745,214.297852 C135.090712,202.09167 134.922867,177.052032 145.181348,176.954383" id="Fill-246" fill="#83A38F"></path>
            <path d="M145.181348,176.954383 C145.181348,176.954383 185.804798,173.996763 194.308386,189.880523 C202.052516,204.347538 210.654152,232.01378 196.196225,232.861178 C181.738299,233.710232 139.172168,227.824784 137.026745,214.297852 C135.090712,202.09167 134.922867,177.052032 145.181348,176.954383 Z" id="Stroke-248" stroke="#8A8B8A" stroke-width="4" stroke-linecap="round" stroke-linejoin="round"></path>
            <g id="Group-253" transform="translate(36.560274, 69.513171)">
                <path d="M18.0878634,0.175934526 C18.0878634,0.175934526 -3.3962833,46.1390362 1.10063044,68.8350865 C5.59754418,91.5311368 31.525426,122.07721 63.0653099,122.022666 C94.6051939,121.967975 132.594643,99.5268066 132.706575,66.5461171 C132.81899,33.5637726 116.657687,0.546671437 116.657687,0.546671437 L18.0928489,0.175934526" id="Fill-250" fill="#F7D9BA"></path>
                <path d="M18.0878634,0.175934526 C18.0878634,0.175934526 -3.3962833,46.1390362 1.10063044,68.8350865 C5.59754418,91.5311368 31.525426,122.07721 63.0653099,122.022666 C94.6051939,121.967975 132.594643,99.5268066 132.706575,66.5461171 C132.81899,33.5637726 116.657687,0.546671437 116.657687,0.546671437 L18.0928489,0.175934526" id="Stroke-252" stroke="#8A8B8A" stroke-width="4" stroke-linecap="round" stroke-linejoin="round"></path>
            </g>
            <path d="M111.267539,14.3783029 C111.267539,22.1108156 107.445328,28.3785865 102.730715,28.3785865 C98.0161013,28.3785865 94.1938908,22.1108156 94.1938908,14.3783029 C94.1938908,6.64579016 98.0161013,0.378019244 102.730715,0.378019244 C107.445328,0.378019244 111.267539,6.64579016 111.267539,14.3783029" id="Fill-254" fill="#83A38F"></path>
            <path d="M111.267539,14.3783029 C111.267539,22.1108156 107.445328,28.3785865 102.730715,28.3785865 C98.0161013,28.3785865 94.1938908,22.1108156 94.1938908,14.3783029 C94.1938908,6.64579016 98.0161013,0.378019244 102.730715,0.378019244 C107.445328,0.378019244 111.267539,6.64579016 111.267539,14.3783029 Z" id="Stroke-256" stroke="#8A8B8A" stroke-width="3" stroke-linecap="round" stroke-linejoin="round"></path>
            <path d="M48.6838275,75.4836903 C48.6838275,75.4836903 42.6563677,17.6884539 102.729884,17.6884539 C162.464387,17.6884539 159.581111,75.4836903 159.581111,75.4836903 L48.6838275,75.4836903 Z" id="Fill-258" fill="#83A38F"></path>
            <path d="M48.6838275,75.4836903 C48.6838275,75.4836903 42.6563677,17.6884539 102.729884,17.6884539 C162.464387,17.6884539 159.581111,75.4836903 159.581111,75.4836903 L48.6838275,75.4836903 Z" id="Stroke-260" stroke="#8A8B8A" stroke-width="4" stroke-linecap="round" stroke-linejoin="round"></path>
            <g id="Group-265" transform="translate(118.998945, 99.304530)">
                <path d="M0.309527829,6.80202928 C0.309527829,6.80202928 19.5718069,-0.998341541 29.3068109,0.477985804" id="Fill-262" fill="#F7D9BA"></path>
                <path d="M0.309527829,6.80202928 C0.309527829,6.80202928 19.5718069,-0.998341541 29.3068109,0.477985804" id="Stroke-264" stroke="#8A8B8A" stroke-width="4" stroke-linecap="round" stroke-linejoin="round"></path>
            </g>
            <g id="Group-269" transform="translate(59.825903, 99.304530)">
                <path d="M29.9305671,6.55558854 C29.9305671,6.55558854 10.6682881,-1.24478228 0.933284094,0.231545062" id="Fill-266" fill="#F7D9BA"></path>
                <path d="M29.9305671,6.55558854 C29.9305671,6.55558854 10.6682881,-1.24478228 0.933284094,0.231545062" id="Stroke-268" stroke="#8A8B8A" stroke-width="4" stroke-linecap="round" stroke-linejoin="round"></path>
            </g>
            <g id="Group-273" transform="translate(62.496703, 114.200209)">
                <path d="M0.134370878,6.61186111 C0.134370878,6.61186111 12.8922448,-5.9650576 21.8827486,6.15837042" id="Fill-270" fill="#F7D9BA"></path>
                <path d="M0.134370878,6.61186111 C0.134370878,6.61186111 12.8922448,-5.9650576 21.8827486,6.15837042" id="Stroke-272" stroke="#8A8B8A" stroke-width="3" stroke-linecap="round" stroke-linejoin="round"></path>
            </g>
            <g id="Group-277" transform="translate(122.322606, 114.200209)">
                <path d="M22.3590293,6.61186111 C22.3590293,6.61186111 9.60115537,-5.9650576 0.610651543,6.15837042" id="Fill-274" fill="#F7D9BA"></path>
                <path d="M22.3590293,6.61186111 C22.3590293,6.61186111 9.60115537,-5.9650576 0.610651543,6.15837042" id="Stroke-276" stroke="#8A8B8A" stroke-width="3" stroke-linecap="round" stroke-linejoin="round"></path>
            </g>
            <g id="Group-281" transform="translate(91.400686, 138.380745)">
                <path d="M0.850358744,0.0903189959 C0.850358744,0.0903189959 1.33727513,7.11611449 10.3377499,7.11611449 C19.3398866,7.11611449 21.5285175,0.0903189959 21.5285175,0.0903189959" id="Fill-278" fill="#F7D9BA"></path>
                <path d="M0.850358744,0.0903189959 C0.850358744,0.0903189959 1.33727513,7.11611449 10.3377499,7.11611449 C19.3398866,7.11611449 21.5285175,0.0903189959 21.5285175,0.0903189959" id="Stroke-280" stroke="#8A8B8A" stroke-width="3" stroke-linecap="round" stroke-linejoin="round"></path>
            </g>
            <g id="Group-285" transform="translate(109.027961, 149.966274)">
                <line x1="0.287259298" y1="5.94928626" x2="24.6496966" y2="0.61828808" id="Fill-282" fill="#F7D9BA"></line>
                <line x1="0.287259298" y1="5.94928626" x2="24.6496966" y2="0.61828808" id="Stroke-284" stroke="#8A8B8A" stroke-width="4" stroke-linecap="round" stroke-linejoin="round"></line>
            </g>
            <g id="Group-289" transform="translate(70.805856, 149.966274)">
                <line x1="24.3716724" y1="5.94928626" x2="0.00923503034" y2="0.61828808" id="Fill-286" fill="#F7D9BA"></line>
                <line x1="24.3716724" y1="5.94928626" x2="0.00923503034" y2="0.61828808" id="Stroke-288" stroke="#8A8B8A" stroke-width="4" stroke-linecap="round" stroke-linejoin="round"></line>
            </g>
            <g id="Group-293" transform="translate(88.077025, 163.852474)">
                <path d="M0.160034292,0.494205544 C0.160034292,0.494205544 5.7554181,8.00493816 14.5132656,8.00493816 C23.2711132,8.00493816 28.866497,0.494205544 28.866497,0.494205544" id="Fill-290" fill="#F7D9BA"></path>
                <path d="M0.160034292,0.494205544 C0.160034292,0.494205544 5.7554181,8.00493816 14.5132656,8.00493816 C23.2711132,8.00493816 28.866497,0.494205544 28.866497,0.494205544" id="Stroke-292" stroke="#8A8B8A" stroke-width="3" stroke-linecap="round" stroke-linejoin="round"></path>
            </g>
            <polygon id="Fill-294" fill="#93AB9B" points="165.877787 73.0303719 41.368449 73.0303719 38.983722 81.9975709 168.262514 81.9975709"></polygon>
            <polygon id="Stroke-296" stroke="#8A8B8A" stroke-width="3" stroke-linecap="round" stroke-linejoin="round" points="165.877787 73.0303719 41.368449 73.0303719 38.983722 81.9975709 168.262514 81.9975709"></polygon>
            <path d="M77.9232393,72.9198128 C77.9232393,31.6207139 102.731047,17.6882884 102.731047,17.6882884 C102.731047,17.6882884 102.767607,17.6684275 102.804168,17.6469115 C102.840728,17.6684275 102.877288,17.6882884 102.877288,17.6882884 C102.877288,17.6882884 127.685096,31.6207139 127.685096,72.9198128 L77.9232393,72.9198128 Z" id="Fill-298" fill="#93AB9B"></path>
            <path d="M77.9232393,72.9198128 C77.9232393,31.6207139 102.731047,17.6882884 102.731047,17.6882884 C102.731047,17.6882884 102.767607,17.6684275 102.804168,17.6469115 C102.840728,17.6684275 102.877288,17.6882884 102.877288,17.6882884 C102.877288,17.6882884 127.685096,31.6207139 127.685096,72.9198128 L77.9232393,72.9198128 Z" id="Stroke-300" stroke="#8A8B8A" stroke-width="3" stroke-linecap="round" stroke-linejoin="round"></path>
            <line x1="192.644395" y1="109.609195" x2="192.644395" y2="425.38436" id="Stroke-302" stroke="#8A8B8A" stroke-width="4" stroke-linecap="round" stroke-linejoin="round"></line>
            <polygon id="Fill-308" fill="#CBCCC7" points="172.809116 93.8345054 192.644727 55.6254324 212.480338 93.8345054 192.644727 114.574256"></polygon>
            <polygon id="Stroke-310" stroke="#8A8B8A" stroke-width="3" stroke-linecap="round" stroke-linejoin="round" points="172.809116 93.8345054 192.644727 55.6254324 212.480338 93.8345054 192.644727 114.574256"></polygon>
        </g>
    </g>
</svg>