<?xml version="1.0" encoding="UTF-8"?>
<svg width="184px" height="224px" viewBox="0 0 184 224" version="1.1" xmlns="http://www.w3.org/2000/svg" xmlns:xlink="http://www.w3.org/1999/xlink">
    <title>Benzaiten44mm</title>
    <g id="Benzaiten44mm" stroke="none" stroke-width="1" fill="none" fill-rule="evenodd">
        <g id="Benzaiten" transform="translate(-19.000000, 15.000000)">
            <path d="M140,27.5 C140,42.6876821 126.791966,55 110.500686,55 C94.208034,55 81,42.6876821 81,27.5 C81,12.3123179 94.208034,0 110.500686,0 C126.791966,0 140,12.3123179 140,27.5" id="Fill-384" fill="#000307"></path>
            <path d="M140,27.5 C140,42.6876821 126.791966,55 110.500686,55 C94.208034,55 81,42.6876821 81,27.5 C81,12.3123179 94.208034,0 110.500686,0 C126.791966,0 140,12.3123179 140,27.5 Z" id="Stroke-386" stroke="#8A8B8A" stroke-width="3" stroke-linecap="round" stroke-linejoin="round"></path>
            <path d="M147.19492,60.6454198 C147.19492,60.6454198 176.43048,42.4532553 194.536602,51.5445834 C212.641372,60.6345531 219.631573,83.8634192 205.425419,125.807408 C193.255088,161.742129 166.702867,186.20572 177.465966,215.551163 C188.230416,244.896607 198.716394,245.87189 210.009401,248.746125 C210.009401,248.746125 190.383847,252.822484 192.160123,275 C192.160123,275 148.649466,247.932483 157.263189,196.010174 C165.87556,144.087864 201.90531,110.57777 197.971547,87.2334453 C194.420347,66.1588966 178.441971,63.6133791 169.920171,70.7487065 C161.398371,77.8853922 138.295965,104.381051 139.016479,114.503354 L147.19492,60.6454198 Z" id="Fill-388" fill="#E88478"></path>
            <path d="M147.19492,60.6454198 C147.19492,60.6454198 176.43048,42.4532553 194.536602,51.5445834 C212.641372,60.6345531 219.631573,83.8634192 205.425419,125.807408 C193.255088,161.742129 166.702867,186.20572 177.465966,215.551163 C188.230416,244.896607 198.716394,245.87189 210.009401,248.746125 C210.009401,248.746125 190.383847,252.822484 192.160123,275 C192.160123,275 148.649466,247.932483 157.263189,196.010174 C165.87556,144.087864 201.90531,110.57777 197.971547,87.2334453 C194.420347,66.1588966 178.441971,63.6133791 169.920171,70.7487065 C161.398371,77.8853922 138.295965,104.381051 139.016479,114.503354 L147.19492,60.6454198 Z" id="Stroke-390" stroke="#8A8B8A" stroke-width="4" stroke-linecap="round" stroke-linejoin="round"></path>
            <path d="M62.9784565,64.3291555 C62.9784565,64.3291555 10.9953933,58.3783732 2.12186344,97.081471 C-9.2651751,146.73991 26.7722217,162.466978 72.1093283,179.50847 C117.446435,196.548609 90.0715203,249.596666 62.1165654,260.65218 C30.6432429,273.099278 17.6590507,264.982606 17.6590507,264.982606 C17.6590507,264.982606 36.4136924,288.073699 33.7994255,301 C33.7994255,301 80.415072,290.537398 108.718596,250.257262 C126.151127,225.448347 124.638392,190.550447 95.3014157,178.047848 C65.9658011,165.543895 18.0389363,144.511751 19.0955359,113.700615 C19.9873821,87.6788017 54.2097696,82.9003073 67.748132,92.2975618 L62.9784565,64.3291555 Z" id="Fill-392" fill="#E88478"></path>
            <path d="M62.9784565,64.3291555 C62.9784565,64.3291555 10.9953933,58.3783732 2.12186344,97.081471 C-9.2651751,146.73991 26.7722217,162.466978 72.1093283,179.50847 C117.446435,196.548609 90.0715203,249.596666 62.1165654,260.65218 C30.6432429,273.099278 17.6590507,264.982606 17.6590507,264.982606 C17.6590507,264.982606 36.4136924,288.073699 33.7994255,301 C33.7994255,301 80.415072,290.537398 108.718596,250.257262 C126.151127,225.448347 124.638392,190.550447 95.3014157,178.047848 C65.9658011,165.543895 18.0389363,144.511751 19.0955359,113.700615 C19.9873821,87.6788017 54.2097696,82.9003073 67.748132,92.2975618 L62.9784565,64.3291555 Z" id="Stroke-394" stroke="#8A8B8A" stroke-width="4" stroke-linecap="round" stroke-linejoin="round"></path>
            <path d="M118.925353,148.047514 C118.925353,148.047514 78.6821832,146.433213 66.3293507,162.023573 C53.9751595,177.612568 48.1913927,205.542851 49.090818,216.223442 C50.9970019,238.883706 50.6614157,303 50.6614157,303 L173.63813,301.388428 L172.058021,202.57079 C172.058021,202.57079 225.27085,227.657282 241.995813,216.223442 C264.985505,200.508905 255.703219,170.059601 242.338193,167.981342 C228.973167,165.901717 118.925353,148.047514 118.925353,148.047514" id="Fill-396" fill="#EC9BA2"></path>
            <path d="M118.925353,148.047514 C118.925353,148.047514 78.6821832,146.433213 66.3293507,162.023573 C53.9751595,177.612568 48.1913927,205.542851 49.090818,216.223442 C50.9970019,238.883706 50.6614157,303 50.6614157,303 L173.63813,301.388428 L172.058021,202.57079 C172.058021,202.57079 225.27085,227.657282 241.995813,216.223442 C264.985505,200.508905 255.703219,170.059601 242.338193,167.981342 C228.973167,165.901717 118.925353,148.047514 118.925353,148.047514 Z" id="Stroke-398" stroke="#8A8B8A" stroke-width="4" stroke-linecap="round" stroke-linejoin="round"></path>
            <path d="M151.746442,201.471239 C151.746442,201.471239 102.542157,193.58361 82.6252973,219.076317 C62.7070815,244.569024 59.9704966,270.327591 78.3129385,287.280228 C97.3212195,304.847326 134.811619,298.946865 151.746442,283.101073 C168.681265,267.255282 173.037019,228.884648 169.9031,221.844786 L270,128.894204 L255.748875,116 L151.746442,201.471239 Z" id="Fill-400" fill="#CEAD9B"></path>
            <path d="M151.746442,201.471239 C151.746442,201.471239 102.542157,193.58361 82.6252973,219.076317 C62.7070815,244.569024 59.9704966,270.327591 78.3129385,287.280228 C97.3212195,304.847326 134.811619,298.946865 151.746442,283.101073 C168.681265,267.255282 173.037019,228.884648 169.9031,221.844786 L270,128.894204 L255.748875,116 L151.746442,201.471239 Z" id="Stroke-402" stroke="#8A8B8A" stroke-width="3" stroke-linecap="round" stroke-linejoin="round"></path>
            <line x1="250" y1="129" x2="116" y2="240" id="Stroke-404" stroke="#8A8B8A" stroke-width="3" stroke-linecap="round" stroke-linejoin="round"></line>
            <line x1="255" y1="132" x2="122" y2="247" id="Stroke-406" stroke="#8A8B8A" stroke-width="3" stroke-linecap="round" stroke-linejoin="round"></line>
            <g id="Group-415" transform="translate(42.000000, 144.000000)">
                <path d="M39.8945233,64.3414199 C41.8828966,65.6729122 82.3335265,79.8228849 88.0093544,81.8922965 C93.6851823,83.9617081 72.4745088,113.021157 66.3219603,119.30224 C60.1694117,125.583322 3.00503737,79.6623504 0.648597697,69.3274337 C0.648597697,69.3274337 -5.51753264,59.0329879 22.2789483,21.2938816 C27.7850039,13.8202569 70.3353777,0.110067924 70.3353777,0.110067924" id="Fill-412" fill="#EC9BA2"></path>
                <path d="M39.8945233,64.3414199 C41.8828966,65.6729122 82.3335265,79.8228849 88.0093544,81.8922965 C93.6851823,83.9617081 72.4745088,113.021157 66.3219603,119.30224 C60.1694117,125.583322 3.00503737,79.6623504 0.648597697,69.3274337 C0.648597697,69.3274337 -5.51753264,59.0329879 22.2789483,21.2938816 C27.7850039,13.8202569 70.3353777,0.110067924 70.3353777,0.110067924" id="Stroke-414" stroke="#8A8B8A" stroke-width="4" stroke-linecap="round" stroke-linejoin="round"></path>
            </g>
            <path d="M100,154 C100,154 121.118744,189.15877 121.499323,195 L143,154 L100,154 Z" id="Fill-416" fill="#F7D9BA"></path>
            <path d="M100,154 C100,154 121.118744,189.15877 121.499323,195 L143,154 L100,154 Z" id="Stroke-418" stroke="#8A8B8A" stroke-width="4" stroke-linecap="round" stroke-linejoin="round"></path>
            <path d="M152.879414,61.6227773 C158.119905,68.9119017 169.276816,95.2175538 155.026644,132.459615 C135.329673,183.936844 85.4384613,152.106488 75.1312122,126.736141 C69.3193027,112.431541 68.8741121,96.8689747 69.0220565,86.7589565 C69.179502,76.0362924 70.1635362,58.884931 88.2629787,48.4549754 C100.88169,41.1835497 133.32903,34.4321923 152.879414,61.6227773" id="Fill-420" fill="#F7D9BA"></path>
            <path d="M152.879414,61.6227773 C158.119905,68.9119017 169.276816,95.2175538 155.026644,132.459615 C135.329673,183.936844 85.4384613,152.106488 75.1312122,126.736141 C69.3193027,112.431541 68.8741121,96.8689747 69.0220565,86.7589565 C69.179502,76.0362924 70.1635362,58.884931 88.2629787,48.4549754 C100.88169,41.1835497 133.32903,34.4321923 152.879414,61.6227773 Z" id="Stroke-422" stroke="#8A8B8A" stroke-width="4" stroke-linecap="round" stroke-linejoin="round"></path>
            <path d="M107,100.260674 C107,100.260674 102.376159,94.2632408 96.3133413,95.0756699 C91.2291355,95.7580544 89,101.447855 89,103" id="Stroke-428" stroke="#8A8B8A" stroke-width="3" stroke-linecap="round" stroke-linejoin="round"></path>
            <path d="M128,99 C128,99 130.784449,92.0867457 136.817645,91.0979738 C141.876486,90.2694698 145.573383,94.9267486 146,96.3718768" id="Stroke-430" stroke="#8A8B8A" stroke-width="3" stroke-linecap="round" stroke-linejoin="round"></path>
            <path d="M115,123.949586 C115,123.949586 122.420786,129.142565 127,123" id="Stroke-432" stroke="#8A8B8A" stroke-width="3" stroke-linecap="round" stroke-linejoin="round"></path>
            <path d="M110,139.041954 C110,139.041954 122.991553,144.593982 132,137" id="Stroke-434" stroke="#8A8B8A" stroke-width="3" stroke-linecap="round" stroke-linejoin="round"></path>
            <path d="M124.771992,64.0441872 C124.771992,64.0441872 83.4638004,40.2991883 72.9568483,116.653632 C62.448541,193.008075 78.673129,264 78.673129,264 C78.673129,264 33.129903,124.33416 49.5835216,71.7600218 C59.7367635,39.3173952 98.3345324,20.8575122 113.819175,33.1469003 C113.819175,33.1469003 210.619197,-19.228978 181.558049,248.295384 C181.558049,248.295384 164.851006,32.5887855 124.771992,64.0441872" id="Fill-436" fill="#000307"></path>
            <path d="M124.771992,64.0441872 C124.771992,64.0441872 83.4638004,40.2991883 72.9568483,116.653632 C62.448541,193.008075 78.673129,264 78.673129,264 C78.673129,264 33.129903,124.33416 49.5835216,71.7600218 C59.7367635,39.3173952 98.3345324,20.8575122 113.819175,33.1469003 C113.819175,33.1469003 210.619197,-19.228978 181.558049,248.295384 C181.558049,248.295384 164.851006,32.5887855 124.771992,64.0441872 Z" id="Stroke-438" stroke="#8A8B8A" stroke-width="3" stroke-linecap="round" stroke-linejoin="round"></path>
            <path d="M100.089365,40 C100.089365,40 89.668646,28.4167086 91.1428688,23.4299638 C93.6084491,15.0909822 125.522069,14.7906072 128.728132,22.9527447 C130.531459,27.5428905 122.773243,40 122.773243,40 L100.089365,40 Z" id="Fill-440" fill="#FCD894"></path>
            <path d="M100.089365,40 C100.089365,40 89.668646,28.4167086 91.1428688,23.4299638 C93.6084491,15.0909822 125.522069,14.7906072 128.728132,22.9527447 C130.531459,27.5428905 122.773243,40 122.773243,40 L100.089365,40 Z" id="Stroke-442" stroke="#8A8B8A" stroke-width="3" stroke-linecap="round" stroke-linejoin="round"></path>
        </g>
    </g>
</svg>