<?xml version="1.0" encoding="UTF-8"?>
<svg width="184px" height="224px" viewBox="0 0 184 224" version="1.1" xmlns="http://www.w3.org/2000/svg" xmlns:xlink="http://www.w3.org/1999/xlink">
    <title>Fukurokuju44mm</title>
    <g id="Fukurokuju44mm" stroke="none" stroke-width="1" fill="none" fill-rule="evenodd">
        <g id="Fukurokuju" transform="translate(0.000000, 20.000000)">
            <path d="M141.062992,157.039672 C141.062992,157.039672 196.098914,168.751689 206.711155,197.062895 C217.321744,225.374101 243.107077,297.132526 209.237801,306.769645 C175.366872,316.40511 173.496262,286.875418 173.496262,286.875418 L180.940694,395.241337 L10.1450844,395.241337 C10.1450844,395.241337 -10.5720858,236.525647 10.1450844,190.252929 C30.8639071,143.978557 141.062992,157.039672 141.062992,157.039672" id="Fill-126" fill="#B9DDC9"></path>
            <path d="M141.062992,157.039672 C141.062992,157.039672 196.098914,168.751689 206.711155,197.062895 C217.321744,225.374101 243.107077,297.132526 209.237801,306.769645 C175.366872,316.40511 173.496262,286.875418 173.496262,286.875418 L180.940694,395.241337 L10.1450844,395.241337 C10.1450844,395.241337 -10.5720858,236.525647 10.1450844,190.252929 C30.8639071,143.978557 141.062992,157.039672 141.062992,157.039672 Z" id="Stroke-128" stroke="#8A8B8A" stroke-width="3" stroke-linecap="round" stroke-linejoin="round"></path>
            <path d="M43.4573092,145.9984 C33.1259901,166.767226 32.4286426,211.575116 90.9033801,284.070915 C90.9033801,284.070915 160.636479,174.924636 139.139338,145.9984 L43.4573092,145.9984 Z" id="Fill-130" fill="#FFFFFE"></path>
            <path d="M43.4573092,145.9984 C33.1259901,166.767226 32.4286426,211.575116 90.9033801,284.070915 C90.9033801,284.070915 160.636479,174.924636 139.139338,145.9984 L43.4573092,145.9984 Z" id="Stroke-132" stroke="#8A8B8A" stroke-width="3" stroke-linecap="round" stroke-linejoin="round"></path>
            <path d="M40.6436277,127.468977 C40.6518901,112.425549 24.7070887,86.5827285 24.7070887,60.9631041 C24.7070887,26.6338655 53.5974362,0.0916965666 91.1500957,0.0916965666 C128.674663,0.0916965666 157.100663,26.6338655 157.100663,60.9631041 C157.100663,92.0006111 140.002429,102.446196 140.002429,126.042175 C140.002429,148.300629 121.461578,179.042194 91.1930603,179.042194 C67.7410319,179.042194 40.6254504,163.201872 40.6436277,127.468977" id="Fill-134" fill="#F7D9BA"></path>
            <path d="M40.6436277,127.468977 C40.6518901,112.425549 24.7070887,86.5827285 24.7070887,60.9631041 C24.7070887,26.6338655 53.5974362,0.0916965666 91.1500957,0.0916965666 C128.674663,0.0916965666 157.100663,26.6338655 157.100663,60.9631041 C157.100663,92.0006111 140.002429,102.446196 140.002429,126.042175 C140.002429,148.300629 121.461578,179.042194 91.1930603,179.042194 C67.7410319,179.042194 40.6254504,163.201872 40.6436277,127.468977 Z" id="Stroke-136" stroke="#8A8B8A" stroke-width="4" stroke-linecap="round" stroke-linejoin="round"></path>
            <g id="Group-141" transform="translate(75.370360, 45.282657)">
                <path d="M0.483698729,3.35538382 C0.483698729,3.35538382 11.3421597,-3.33058424 23.5920108,2.24105581" id="Fill-138" fill="#F7D9BA"></path>
                <path d="M0.483698729,3.35538382 C0.483698729,3.35538382 11.3421597,-3.33058424 23.5920108,2.24105581" id="Stroke-140" stroke="#8A8B8A" stroke-width="3" stroke-linecap="round" stroke-linejoin="round"></path>
            </g>
            <g id="Group-145" transform="translate(65.455467, 28.106196)">
                <path d="M0.63457036,4.22314206 C0.63457036,4.22314206 28.2178044,-4.27815561 44.6434782,3.52214047" id="Fill-142" fill="#F7D9BA"></path>
                <path d="M0.63457036,4.22314206 C0.63457036,4.22314206 28.2178044,-4.27815561 44.6434782,3.52214047" id="Stroke-144" stroke="#8A8B8A" stroke-width="3" stroke-linecap="round" stroke-linejoin="round"></path>
            </g>
            <g id="Group-149" transform="translate(97.496454, 95.891728)">
                <path d="M0.180451064,9.0190511 C0.180451064,9.0190511 1.61150071,0.248264612 7.10765674,0.248264612 C12.6038128,0.248264612 14.0183376,8.44039412 14.0183376,8.44039412" id="Fill-146" fill="#F7D9BA"></path>
                <path d="M0.180451064,9.0190511 C0.180451064,9.0190511 1.61150071,0.248264612 7.10765674,0.248264612 C12.6038128,0.248264612 14.0183376,8.44039412 14.0183376,8.44039412" id="Stroke-148" stroke="#8A8B8A" stroke-width="3" stroke-linecap="round" stroke-linejoin="round"></path>
            </g>
            <g id="Group-153" transform="translate(63.802984, 95.891728)">
                <path d="M0.290523552,9.0190511 C0.290523552,9.0190511 1.7215732,0.248264612 7.21772923,0.248264612 C12.7138853,0.248264612 14.1284101,8.44039412 14.1284101,8.44039412" id="Fill-150" fill="#F7D9BA"></path>
                <path d="M0.290523552,9.0190511 C0.290523552,9.0190511 1.7215732,0.248264612 7.21772923,0.248264612 C12.7138853,0.248264612 14.1284101,8.44039412 14.1284101,8.44039412" id="Stroke-152" stroke="#8A8B8A" stroke-width="3" stroke-linecap="round" stroke-linejoin="round"></path>
            </g>
            <g id="Group-157" transform="translate(104.106383, 71.735548)">
                <path d="M0.406675887,0.228982833 C0.406675887,0.228982833 22.4375695,8.06399832 28.0064348,16.4214584" id="Fill-154" fill="#F7D9BA"></path>
                <path d="M0.406675887,0.228982833 C0.406675887,0.228982833 22.4375695,8.06399832 28.0064348,16.4214584" id="Stroke-156" stroke="#8A8B8A" stroke-width="4" stroke-linecap="round" stroke-linejoin="round"></path>
            </g>
            <g id="Group-161" transform="translate(50.583126, 71.092143)">
                <path d="M27.6541427,0.206105318 C27.6541427,0.206105318 5.62324908,8.04112081 0.0543838353,16.3985809" id="Fill-158" fill="#F7D9BA"></path>
                <path d="M27.6541427,0.206105318 C27.6541427,0.206105318 5.62324908,8.04112081 0.0543838353,16.3985809" id="Stroke-160" stroke="#8A8B8A" stroke-width="4" stroke-linecap="round" stroke-linejoin="round"></path>
            </g>
            <path d="M82.6750099,132.931499 C82.6750099,132.931499 52.4428468,153.561447 50.6383362,192.138028 C50.6383362,192.138028 76.5393433,169.410035 85.515627,157.567407 C85.515627,157.567407 106.541811,187.470746 121.914854,191.742888 C121.914854,191.742888 121.017556,152.316508 93.6590596,132.222231 L82.6750099,132.931499 Z" id="Fill-162" fill="#FFFFFE"></path>
            <path d="M82.6750099,132.931499 C82.6750099,132.931499 52.4428468,153.561447 50.6383362,192.138028 C50.6383362,192.138028 76.5393433,169.410035 85.515627,157.567407 C85.515627,157.567407 106.541811,187.470746 121.914854,191.742888 C121.914854,191.742888 121.017556,152.316508 93.6590596,132.222231 L82.6750099,132.931499 Z" id="Stroke-164" stroke="#8A8B8A" stroke-width="3" stroke-linecap="round" stroke-linejoin="round"></path>
            <g id="Group-169" transform="translate(79.319149, 127.947940)">
                <path d="M0.425844681,0.503927563 C0.425844681,0.503927563 1.00586596,8.04465465 7.96281631,8.04465465 C14.9197667,8.04465465 15.4997879,0.503927563 15.4997879,0.503927563" id="Fill-166" fill="#F7D9BA"></path>
                <path d="M0.425844681,0.503927563 C0.425844681,0.503927563 1.00586596,8.04465465 7.96281631,8.04465465 C14.9197667,8.04465465 15.4997879,0.503927563 15.4997879,0.503927563" id="Stroke-168" stroke="#8A8B8A" stroke-width="3" stroke-linecap="round" stroke-linejoin="round"></path>
            </g>
            <path d="M203.211694,218.843709 L203.211694,407.386685 L189.763793,407.386685 C189.763793,407.386685 188.605403,185.192326 189.763793,158.793994 C189.805105,157.883023 189.763793,140.404275 175.963913,140.379476 C160.39753,140.35137 144.857587,130.054582 141.446864,99.3708824 C137.963431,68.0109808 158.693821,42.4872481 189.763793,42.4872481 C220.835417,42.4872481 235.582169,61.3398925 231.490623,71.6118805 C227.096672,82.6460424 211.938452,69.6444468 195.838318,66.1146392 C181.235332,62.9138394 157.65441,73.5412882 160.622268,97.9606127 C163.590126,122.378284 176.096112,117.866413 189.763793,125.866759 C205.682155,135.184789 203.274488,156.940639 203.211694,158.059926 C202.844843,164.635123 203.211694,188.417925 203.211694,218.843709" id="Fill-170" fill="#C7AE99"></path>
            <path d="M203.211694,218.843709 L203.211694,407.386685 L189.763793,407.386685 C189.763793,407.386685 188.605403,185.192326 189.763793,158.793994 C189.805105,157.883023 189.763793,140.404275 175.963913,140.379476 C160.39753,140.35137 144.857587,130.054582 141.446864,99.3708824 C137.963431,68.0109808 158.693821,42.4872481 189.763793,42.4872481 C220.835417,42.4872481 235.582169,61.3398925 231.490623,71.6118805 C227.096672,82.6460424 211.938452,69.6444468 195.838318,66.1146392 C181.235332,62.9138394 157.65441,73.5412882 160.622268,97.9606127 C163.590126,122.378284 176.096112,117.866413 189.763793,125.866759 C205.682155,135.184789 203.274488,156.940639 203.211694,158.059926 C202.844843,164.635123 203.211694,188.417925 203.211694,218.843709 Z" id="Stroke-172" stroke="#8A8B8A" stroke-width="3" stroke-linecap="round" stroke-linejoin="round"></path>
        </g>
    </g>
</svg>